<?xml version="1.0" encoding="UTF-8" standalone="no"?>
<svg
   viewBox="0 0 1000000 1000000"
   version="1.1"
   id="svg504"
   sodipodi:docname="PrimaryLogo.svg"
   width="1000000"
   height="1000000"
   xmlns:inkscape="http://www.inkscape.org/namespaces/inkscape"
   xmlns:sodipodi="http://sodipodi.sourceforge.net/DTD/sodipodi-0.dtd"
   xmlns="http://www.w3.org/2000/svg"
   xmlns:svg="http://www.w3.org/2000/svg">
  <sodipodi:namedview
     id="namedview506"
     pagecolor="#ffffff"
     bordercolor="#000000"
     borderopacity="0.25"
     inkscape:showpageshadow="2"
     inkscape:pageopacity="0.0"
     inkscape:pagecheckerboard="0"
     inkscape:deskcolor="#d1d1d1"
     showgrid="false" />
  <defs
     id="defs257">
    <style
       id="style255">.cls-1{fill:#fff;}</style>
  </defs>
  <title
     id="title259">Company Name White On Black Logo</title>
  <g
     id="_4"
     data-name="4"
     inkscape:export-filename="..\..\Documents\GitHub\frenchmanstreetrochester.com\public\PirmaryLogo.svg"
     inkscape:export-xdpi="96"
     inkscape:export-ydpi="96"
     style="fill:#ffffff">
    <path
       class="cls-1"
       d="m 495.58,419.08 a 4.3104901,4.3104901 0 0 0 -0.13,8.62 c -2.08,6.19 -7.72,10.48 -13.72,14.42 6.21,1.63 10.4,0.9 13.23,-1.08 -2.32,5.2 -4.88,7.32 -4.88,7.32 l 8.73,8.74 1.53,1.53 1.54,-1.53 8.73,-8.74 c 0,0 -2.56,-2.11 -4.88,-7.32 2.83,2 7,2.71 13.22,1.08 -6,-3.94 -11.64,-8.23 -13.72,-14.42 a 4.23,4.23 0 0 0 1.55,-0.35 l -1.54,-3.2 -0.4,-1.59 -0.7,-0.7 -2,-0.29 -1.43,-0.55 -0.21,-1.35 -1.7,-1.28 -1.25,-0.84 c 0,0 -0.73,-1.72 -0.86,-1.9 A 7.72,7.72 0 0 0 496.04,415 l -0.89,-0.74 -0.68,-0.42 a 27.93,27.93 0 0 1 1.48,5.24 z"
       id="path261"
       style="fill:#ffffff" />
    <path
       class="cls-1"
       d="m 465.94,424.11 c 9.24,5.75 22.67,-1 21.83,-12.12 a 6.43,6.43 0 0 1 -12.48,-2.18 5.86,5.86 0 0 1 0.08,-0.94 5,5 0 0 1 0.73,-2.18 6.43,6.43 0 0 1 4.29,-3.17 9.35,9.35 0 0 1 9.11,2.07 c -0.26,-0.28 -0.78,-0.85 -1,-1.14 a 13.65,13.65 0 0 0 -0.89,-1.14 c -0.18,-0.19 -1.41,-0.94 -1.48,-1 -0.07,-0.06 -1.52,-0.63 -1.52,-0.63 l -2.61,-0.83 -1.2,-1.05 -0.55,-1.33 -0.7,-1.17 c 0,0 -2.71,-1.41 -2.79,-1.49 a 14.57,14.57 0 0 1 -0.65,-1.7 9.06,9.06 0 0 1 0.12,-2.31 22.5,22.5 0 0 0 -8,2.27 c -15.29,7.53 -12.57,23.66 -2.29,30.04 z"
       id="path263"
       style="fill:#ffffff" />
    <path
       class="cls-1"
       d="m 509.41,423.4 a 4.31,4.31 0 0 0 -4.31,-4.32 h -0.41 a 32.2,32.2 0 0 1 3.29,-9.27 c 3.25,-6.32 8.45,-7.52 12.31,-6.29 a 6.43,6.43 0 0 1 4.29,3.17 5,5 0 0 1 0.73,2.18 5.86,5.86 0 0 1 0.08,0.94 6.43,6.43 0 0 1 -12.48,2.19 c -0.84,11.12 12.59,17.87 21.83,12.12 10.27,-6.38 13,-22.51 -2.27,-30.06 -8.6,-4.24 -17.21,-2.18 -23.46,1.6 2.46,-4.92 4.62,-9.21 4.62,-14.11 0,-10.66 -11.8,-21.78 -13.22,-23.07 l -0.07,-0.07 -0.06,0.07 c -1.42,1.29 -13.23,12.41 -13.23,23.07 0,4.9 2.16,9.19 4.62,14.11 a 26.11,26.11 0 0 0 -14.16,-3.94 l -0.13,1.73 0.76,1.18 1.22,0.94 a 13,13 0 0 1 1.64,1.08 c 0.13,0.21 0,0.52 0,0.94 0,0.42 0.66,0.94 0.66,0.94 0,0 0.7,0.77 1,1.05 0.3,0.28 0.69,0.62 0.9,0.83 a 10.49,10.49 0 0 0 2.05,0.59 l 0.84,0.28 a 10.59,10.59 0 0 1 2.15,1.32 c 0.25,0.38 0.74,0.52 1.05,1.05 0.31,0.53 0.94,1.42 0.94,1.42 l 0.81,2.63 a 17,17 0 0 1 1.29,2.12 c 0.58,1.12 1.07,2.19 1.49,3.23 0.18,0.17 2.46,2 2.46,2 l 1.91,2.54 2.44,2 0.07,0.91 2.64,0.76 1.78,0.59 -0.18,0.8 0.25,1.36 1.68,3.12 a 4.27,4.27 0 0 0 2.18,-3.73 z"
       id="path265"
       style="fill:#ffffff" />
    <path
       class="cls-1"
       d="m 477.41,389 v 0.08 a 26.44,26.44 0 0 1 7.85,0.93 0.49,0.49 0 0 0 0.52,-0.15 0.5,0.5 0 0 0 0.11,-0.53 22.48,22.48 0 0 1 -1.5,-7.81 c 0,-11.55 11.7,-22.82 14.06,-25 l 1.82,-1.82 1.93,1.82 c 2.35,2.13 14,13.37 14,25 a 22.45,22.45 0 0 1 -1.49,7.81 0.52,0.52 0 0 0 0.63,0.68 25.44,25.44 0 0 1 18.24,1.66 c 7.49,3.71 11.81,9.67 12.15,16.79 a 20.31,20.31 0 0 1 -9.66,17.87 16.68,16.68 0 0 1 -8.83,2.49 18,18 0 0 1 -13,-5.58 16.34,16.34 0 0 1 -1.51,-1.92 0.53,0.53 0 0 0 -0.95,0.42 7,7 0 0 1 0.19,1.64 6.83,6.83 0 0 1 -2.85,5.61 v 0 l 0.52,0.35 1.36,2.68 0.78,1.17 a 50.39,50.39 0 0 0 8.56,6.69 l 5,3.24 -5.73,1.51 a 27.9,27.9 0 0 1 -6.71,1 0.53,0.53 0 0 0 -0.35,0.92 l 1.89,1.64 -14.1,14.15 -14.18,-14.18 1.93,-1.6 a 0.53,0.53 0 0 0 0.16,-0.58 0.52,0.52 0 0 0 -0.49,-0.35 27.9,27.9 0 0 1 -6.71,-1 l -5.73,-1.51 4.95,-3.24 c 4.46,-2.92 8.92,-6.18 11.35,-10.21 a 0.52,0.52 0 0 0 -0.15,-0.7 6.92,6.92 0 0 1 -2.65,-7.25 0.53,0.53 0 0 0 -0.95,-0.41 16.24,16.24 0 0 1 -1.51,1.91 18,18 0 0 1 -13,5.58 16.68,16.68 0 0 1 -8.83,-2.49 20.34,20.34 0 0 1 -9.67,-17.87 c 0.35,-7.12 4.67,-13.08 12.16,-16.79 a 25.24,25.24 0 0 1 9.18,-2.53 c 0,-0.43 0,-0.88 0,-0.88 l -1.12,-0.07 a 26.23,26.23 0 0 0 -8.55,2.54 c -7.85,3.88 -12.38,10.16 -12.75,17.68 a 19.74,19.74 0 0 0 0.15,3.35 l 0.82,-0.33 -0.49,0.38 -0.24,0.19 h -0.06 c 0.07,0.48 0.15,0.95 0.25,1.43 l 0.28,0.58 0.94,1.46 -0.93,-0.88 a 21.83,21.83 0 0 0 9.44,12.6 17.71,17.71 0 0 0 9.39,2.65 19,19 0 0 0 13.81,-5.82 c 0.15,-0.16 0.3,-0.33 0.44,-0.5 a 8,8 0 0 0 2.9,6.09 c -2.38,3.68 -6.57,6.73 -10.77,9.48 l -5.94,3.89 a 0.53,0.53 0 0 0 0.15,0.95 l 6.87,1.81 a 31.71,31.71 0 0 0 5.58,1 l -1.32,1.09 a 0.54,0.54 0 0 0 -0.19,0.38 0.55,0.55 0 0 0 0.16,0.4 l 15,15 a 0.55,0.55 0 0 0 0.38,0.16 0.52,0.52 0 0 0 0.37,-0.16 l 12.45,-12.59 2.37,-2.42 a 0.54,0.54 0 0 0 0.15,-0.39 0.53,0.53 0 0 0 -0.18,-0.37 l -1.3,-1.13 a 29.7,29.7 0 0 0 5.63,-1 l 6.87,-1.8 a 0.53,0.53 0 0 0 0.15,-0.95 L 521,439 c -4.2,-2.75 -8.4,-5.8 -10.77,-9.48 a 8,8 0 0 0 2.9,-6.09 c 0.14,0.17 0.29,0.34 0.44,0.5 a 19,19 0 0 0 13.76,5.92 17.71,17.71 0 0 0 9.39,-2.65 21.37,21.37 0 0 0 10.15,-18.81 c -0.36,-7.52 -4.89,-13.8 -12.74,-17.68 a 26.38,26.38 0 0 0 -18,-2 22.66,22.66 0 0 0 1.24,-7.23 c 0,-12.05 -12,-23.57 -14.38,-25.76 l -2.3,-2.16 a 0.54,0.54 0 0 0 -0.74,0 l -2.16,2.17 c -2.4,2.19 -14.38,13.74 -14.38,25.74 a 22.76,22.76 0 0 0 1.24,7.23 27.08,27.08 0 0 0 -6.48,-0.74 l -0.26,0.54 z"
       id="path267"
       style="fill:#ffffff" />
    <path
       class="cls-1"
       d="m 509.05,429.71 a 19.5,19.5 0 0 0 1.44,2 l -1.05,-2 -0.45,-0.28 a 0.46,0.46 0 0 0 0.06,0.28 z"
       id="path269"
       style="fill:#ffffff" />
    <path
       class="cls-1"
       d="m 208,546.58 a 3.43,3.43 0 0 0 0.51,-0.09 V 511 c 0,-4.9 -1.2,-7.33 -2.38,-7.57 l -4.9,-0.76 v -9.4 H 249 l 2,-1.05 a 12.59,12.59 0 0 1 1.52,0.38 l 1.31,0.64 V 492 H 200 v 11.7 l 1.06,0.17 4.9,0.76 c 0.2,0.12 1.32,1.66 1.32,6.33 v 35.58 a 5.83,5.83 0 0 0 0.72,0.04 z"
       id="path271"
       style="fill:#ffffff" />
    <path
       class="cls-1"
       d="m 224.54,545.44 v 4.89 c 0,5.42 1.2,6.69 3.72,7.36 l 4.7,1.06 v 9.31 h -31.7 v -9.4 l 5,-0.78 c 0.52,-0.1 2.32,-0.48 2.32,-7.55 v -2 a 2.16,2.16 0 0 1 -0.73,0.08 1.88,1.88 0 0 0 -0.53,0 v 1.93 c 0,4.79 -0.86,6.23 -1.31,6.32 l -4.91,0.77 -1.06,0.17 v 11.73 h 34.21 v -11.58 l -1,-0.22 -4.7,-1.06 c -1.51,-0.41 -2.75,-0.73 -2.75,-6.14 v -5.17 l -0.78,0.13 z"
       id="path273"
       style="fill:#ffffff" />
    <path
       class="cls-1"
       d="m 241,521.18 v -6.35 c 0,-8.31 -6.44,-11.41 -10.49,-11.41 -4.22,0 -5.94,1.86 -5.94,6.4 V 523 h 11.23 v 11.22 h -11.26 v 8.92 l 1.25,-0.45 v -7.21 h 11.27 v -13.69 h -11.27 v -12 c 0,-3.84 1.19,-5.14 4.69,-5.14 3.5,0 9.24,2.76 9.24,10.15 v 7.6 h 14.07 v -28.2 l -0.43,-0.49 -0.83,0.42 v 27 z"
       id="path275"
       style="fill:#ffffff" />
    <path
       class="cls-1"
       d="m 294.65,569.32 v -11.8 l -1.09,-0.14 -4,-0.52 c -1,-0.11 -2.86,-0.32 -2.86,-6.53 v -12.19 h 7.87 c 2.39,0 4.19,4.1 4.93,11.25 1.46,12.8 4.63,20.73 15.89,20.73 12.43,0 13.87,-13 13.87,-22.75 v -8.06 H 317 a 18.79,18.79 0 0 0 -3.8,-8.47 c 3.34,-2.87 6.83,-8 6.83,-17 0,-13.87 -8.83,-21.83 -24.22,-21.83 H 286 l -0.9,1.26 h 10.73 c 14.81,0 23,7.31 23,20.57 0,9.53 -4.08,14.46 -7.4,16.9 3.64,3.61 4.59,8.66 5,13.23 0.21,2.4 0.58,6.67 1.22,7.91 a 12.28,12.28 0 0 0 0.65,-4.47 v -6.8 h 9.7 v 6.8 c 0,14.86 -3.89,21.49 -12.61,21.49 -10.37,0 -13.22,-7.19 -14.64,-19.6 -0.46,-4.46 -1.53,-9.56 -3.93,-11.53 l -2.15,-0.32 -0.59,-0.53 h -8.64 v 13.45 c 0,6.46 2,7.56 3.95,7.77 l 4,0.53 v 9.43 h -31.24 v -9.4 l 5,-0.78 c 0.51,-0.1 2.31,-0.48 2.31,-7.55 v -11 l -1,-0.21 h -0.26 v 11.22 c 0,4.79 -0.86,6.23 -1.32,6.32 l -4.9,0.77 -1.07,0.17 v 11.73 h 33.76 z"
       id="path277"
       style="fill:#ffffff" />
    <path
       class="cls-1"
       d="m 260.89,503.7 1.07,0.17 4.9,0.76 c 0.19,0.12 1.32,1.66 1.32,6.33 v 23.94 l 0.8,0.22 0.45,0.64 V 511 c 0,-4.9 -1.19,-7.33 -2.38,-7.57 l -4.9,-0.76 v -3.47 a 12.05,12.05 0 0 1 -1.26,-0.23 z"
       id="path279"
       style="fill:#ffffff" />
    <path
       class="cls-1"
       d="m 295.81,506.27 h -8.08 c -1,0 -2.3,0 -2.3,5.26 v 11.4 h 10.38 c 3,0 6.17,-3 6.17,-8.1 0.02,-6.32 -3.32,-8.56 -6.17,-8.56 z m 0,15.4 h -9.12 v -10.14 c 0,-4 0.7,-4 1,-4 h 8.08 c 2.38,0 4.91,1.91 4.91,7.3 0.04,4.28 -2.45,6.84 -4.87,6.84 z"
       id="path281"
       style="fill:#ffffff" />
    <path
       class="cls-1"
       d="m 262.15,493.23 h 17.71 l 1.53,-1.26 h -20.5 v 4.81 l 1.26,0.61 z"
       id="path283"
       style="fill:#ffffff" />
    <polygon
       class="cls-1"
       points="383.66,569.32 383.66,568.06 383.66,566.26 382.4,566.82 382.4,568.06 378.31,568.06 364.91,569.32 382.4,569.32 "
       id="polygon285"
       style="fill:#ffffff" />
    <path
       class="cls-1"
       d="m 359.08,568.06 h -24.54 v -9.4 l 5,-0.78 c 1.53,-0.25 2.32,-2.79 2.32,-7.55 V 511 c 0,-4.9 -1.2,-7.33 -2.38,-7.57 l -4.9,-0.76 v -9.4 h 47.82 v 27.95 h -10.31 v -6.35 c 0,-6.93 -3.27,-11.41 -8.33,-11.41 -4.5,0 -5.94,1.56 -5.94,6.4 V 523 h 11.27 v 11.22 h -11.27 v 17.1 c 0,4.46 1.72,6.28 5.94,6.28 5.84,0 8.33,-3.38 8.33,-11.29 v -7.11 h 10.31 v 24.69 l 0.56,-0.16 0.7,-0.17 V 538 h -12.83 v 8.4 c 0,8.33 -2.82,10 -7.07,10 -3.5,0 -4.69,-1.27 -4.69,-5 v -15.88 h 11.27 v -13.73 h -11.27 v -12 c 0,-4.43 1.12,-5.14 4.69,-5.14 4.3,0 7.07,4 7.07,10.15 v 7.6 h 12.83 V 492 h -50.38 v 11.7 l 1.06,0.17 4.9,0.76 c 0.2,0.12 1.32,1.66 1.32,6.33 v 39.37 c 0,5.94 -1.25,6.31 -1.26,6.31 l -5,0.78 -1.06,0.17 v 11.73 h 21.87 l 3.77,-1.22 z"
       id="path287"
       style="fill:#ffffff" />
    <path
       class="cls-1"
       d="m 393.15,558.66 5,-0.78 c 0.52,-0.1 2.32,-0.48 2.32,-7.55 V 511 c 0,-4.9 -1.2,-7.33 -2.38,-7.57 l -4.91,-0.76 v -9.4 h 28.16 l 12.47,33.91 V 511 c 0,-4.9 -1.19,-7.33 -2.38,-7.57 l -4.9,-0.76 v -9.4 h 25 v 9.39 l -4.85,0.79 c -1.1,0.2 -2.44,2.32 -2.44,7.55 v 57.1 h -15.91 l -17.47,-48.71 v 31 c 0,6.18 1.36,7.29 2.55,7.58 l 3.71,0.84 v 3.41 l 1.26,0.28 v -4.69 l -1,-0.22 -3.71,-0.85 c -1.3,-0.31 -1.57,-3.62 -1.57,-6.35 v -23.81 l 15,41.91 0.29,0.83 h 18 V 511 c 0,-4.75 1.13,-6.2 1.44,-6.33 l 4.79,-0.77 1.05,-0.17 V 492 h -27.5 v 8.31 l -2.75,-7.49 -0.3,-0.82 H 391.9 v 11.7 l 1.06,0.17 4.9,0.76 c 0.2,0.12 1.32,1.66 1.32,6.33 v 39.37 c 0,4.79 -0.86,6.23 -1.31,6.32 l -4.91,0.77 -1.06,0.17 v 7.12 l 1.25,0.58 z m 38.06,-54 c 0.19,0.12 1.32,1.65 1.32,6.33 v 9.13 l -5.95,-16.18 z"
       id="path289"
       style="fill:#ffffff" />
    <polygon
       class="cls-1"
       points="391.9,567.45 391.9,568.06 391.9,569.32 393.15,569.32 417.12,569.32 418.38,569.32 418.38,568.06 418.38,564.11 417.32,564.13 417.12,564.07 417.12,568.06 394.15,568.06 393.48,568.5 "
       id="polygon291"
       style="fill:#ffffff" />
    <path
       class="cls-1"
       d="m 497.74,531.08 h 17.38 v -39.45 h -13.39 v 2.83 c 0,0.23 0,0.42 0,0.6 a 17.62,17.62 0 0 1 -3.12,-1.39 22.62,22.62 0 0 0 -10.54,-2.49 c -15.78,0 -26.38,14.81 -26.38,28.65 v 18.9 c 0,14.42 7.23,31.27 27.63,31.27 19.06,0 25.82,-14.64 25.82,-27.18 V 540 h -17.4 v 2.83 c 0,14.25 -5.47,14.25 -8.1,14.25 -6.28,0 -7,-8.93 -7,-12.77 V 514 c 0,-9.8 3.63,-9.8 5.37,-9.8 6.32,0 9.69,13.95 9.69,24 v 2.83 z M 488.05,503 c -3.08,0 -6.62,1.26 -6.62,11.06 v 30.24 c 0,4.22 0.8,14 8.21,14 4.36,0 9.36,-1.76 9.36,-15.5 v -1.57 h 14.86 v 1.57 c 0,12 -6.43,25.93 -24.56,25.93 -19.47,0 -26.38,-16.17 -26.38,-30 v -18.9 c 0,-13.23 10.1,-27.4 25.13,-27.4 a 21.36,21.36 0 0 1 9.92,2.33 12.84,12.84 0 0 0 4.76,1.77 v 0 a 4.62,4.62 0 0 0 0.25,-2.08 v -1.57 h 10.88 v 36.93 H 499 v -1.57 C 499,517.75 495.6,503 488.05,503 Z"
       id="path293"
       style="fill:#ffffff" />
    <path
       class="cls-1"
       d="m 588.41,557.6 -1.06,-0.17 -4.79,-0.77 c -0.88,-0.18 -1.43,-2.55 -1.43,-6.33 v -28.15 l -0.44,-0.15 -0.82,-1.24 v 29.54 c 0,6.34 1.42,7.35 2.49,7.57 l 4.79,0.77 v 0.7 c 1.51,0.39 0.22,0.53 0.37,0.63 a 11.16,11.16 0 0 1 0.89,0.84 z"
       id="path295"
       style="fill:#ffffff" />
    <path
       class="cls-1"
       d="m 559,523.16 -2.3,-0.58 -0.77,-0.68 h -6.18 v -3.79 l -1.26,-0.51 v 5.56 z"
       id="path297"
       style="fill:#ffffff" />
    <path
       class="cls-1"
       d="m 587.15,568.06 h -21.4 l -0.53,0.81 h -2 l 0.2,-0.81 h -6.87 v -9.39 l 4.84,-0.78 c 1.17,-0.23 2.56,-1.3 2.56,-7.56 v -14 h -15.49 v 14 c 0,6.34 1.43,7.35 2.5,7.57 l 4.9,0.76 v 9.4 h -30.68 v -9.4 l 5,-0.78 c 0.51,-0.1 2.31,-0.48 2.31,-7.55 V 511 c 0,-4.9 -1.19,-7.33 -2.38,-7.57 l -4.9,-0.76 v -9.4 h 30.57 v 9.39 l -4.85,0.78 c -1.1,0.21 -2.44,2.33 -2.44,7.56 v 5.71 l 1.26,0.52 V 511 c 0,-4.75 1.14,-6.2 1.44,-6.33 l 4.79,-0.77 h 0.22 0.22 l 4.81,0.78 c 0.39,0.07 1.53,1.71 1.53,6.32 v 10.9 h -3.82 l 2.06,1.1 0.81,0.2 H 564 V 511 c 0,-4.37 -1,-7.27 -2.59,-7.56 l -4.81,-0.78 v -9.39 h 30.56 v 9.39 l -4.84,0.78 c -1.1,0.21 -2.44,2.33 -2.44,7.56 v 6.6 l 1.26,0.32 V 511 c 0,-4.75 1.13,-6.2 1.44,-6.33 l 4.78,-0.77 1.06,-0.17 V 492 h -64.49 v 11.7 l 1.06,0.17 4.9,0.76 c 0.19,0.12 1.32,1.66 1.32,6.33 v 39.37 c 0,4.79 -0.86,6.23 -1.32,6.32 l -4.9,0.77 -1.06,0.17 v 11.73 h 64.48 v -7 l -1.26,-0.68 z m -30.9,-10.61 h -0.2 l -4.9,-0.77 c -0.88,-0.17 -1.43,-2.54 -1.43,-6.32 v -12.79 h 13 v 12.76 c 0,3.83 -0.56,6.14 -1.53,6.32 l -4.81,0.78 z"
       id="path299"
       style="fill:#ffffff" />
    <path
       class="cls-1"
       d="m 631.58,514.26 4,-21 h 27.78 v 9.4 l -5,0.78 c -1.12,0.22 -2.31,2.65 -2.31,7.55 v 5.18 l 1.25,1 V 511 c 0,-4.59 1.1,-6.19 1.37,-6.34 l 4.86,-0.75 1.06,-0.17 V 492 h -30 l -0.2,1 -4,21 a 2.4,2.4 0 0 0 1.19,0.26 z"
       id="path301"
       style="fill:#ffffff" />
    <path
       class="cls-1"
       d="m 601.06,557.88 c 0.51,-0.1 2.31,-0.48 2.31,-7.55 V 513.1 a 0.21,0.21 0 0 0 -0.09,0.06 l -1.16,0.84 v 36.33 c 0,4.79 -0.86,6.23 -1.32,6.32 l -4.9,0.77 -1.07,0.17 v 7.49 0 l 1.23,-0.55 v -5.91 z"
       id="path303"
       style="fill:#ffffff" />
    <polygon
       class="cls-1"
       points="631.23,516.1 630.32,515.72 628.91,515.36 630.17,521.62 "
       id="polygon305"
       style="fill:#ffffff" />
    <path
       class="cls-1"
       d="m 603.36,510.44 c -0.09,-4.53 -1.23,-6.82 -2.37,-7.05 l -4.9,-0.76 v -9.4 h 28.35 l 4,19.8 a 2.55,2.55 0 0 1 0.71,-0.08 c 0.25,0 0.44,0.27 0.67,0.54 l -4.15,-20.49 -0.21,-1 h -30.63 v 11.7 l 1.07,0.17 4.9,0.76 c 0.18,0.11 1.23,1.56 1.31,5.84 a 7.36,7.36 0 0 1 1.25,-0.03 z"
       id="path307"
       style="fill:#ffffff" />
    <path
       class="cls-1"
       d="m 613.8,550.33 c 0,6.18 1.36,7.29 2.55,7.58 l 0.24,0.05 0.13,-0.3 v 0.32 l 3.38,0.77 V 561 l 0.66,0.15 -6.92,-35.19 z m 1.25,-11.52 3.61,18.34 -2,-0.47 c -1.29,-0.31 -1.57,-3.62 -1.57,-6.35 z"
       id="path309"
       style="fill:#ffffff" />
    <path
       class="cls-1"
       d="m 656.13,550.33 c 0,6.34 1.42,7.35 2.49,7.57 l 4.91,0.76 v 9.4 H 634 v -9.31 l 3.73,-0.84 c 1.17,-0.29 2.53,-1.4 2.53,-7.58 v -24.25 l -8.17,42 h -10 l -1.31,-6.67 h -0.72 v 6.65 h -24 v -1.55 l -0.38,-0.14 -0.88,-0.48 v 3.43 h 69.95 v -11.73 l -1.06,-0.17 -4.9,-0.77 c -0.88,-0.17 -1.44,-2.54 -1.44,-6.32 v -31.87 c -0.35,0 -0.87,-0.13 -1.25,-0.2 z M 639,539.1 v 11.23 c 0,2.23 -0.21,6 -1.57,6.35 l -1.94,0.44 z"
       id="path311"
       style="fill:#ffffff" />
    <path
       class="cls-1"
       d="m 705.33,544.85 h -2.46 l 1.34,0.75 1.63,1.42 v 0 z"
       id="path313"
       style="fill:#ffffff" />
    <path
       class="cls-1"
       d="m 695.59,493.23 h 13 l 13.73,53.18 c 0.13,0.5 0.26,1 0.39,1.43 H 724 c -0.15,-0.54 -0.3,-1.1 -0.46,-1.71 L 709.81,492.94 709.56,492 h -14.93 l -0.25,0.93 -6.38,23.71 1.21,0.36 z"
       id="path315"
       style="fill:#ffffff" />
    <polygon
       class="cls-1"
       points="682.98,537.46 683.54,537.74 688.97,517.7 687.78,517.28 682.37,537.28 "
       id="polygon317"
       style="fill:#ffffff" />
    <path
       class="cls-1"
       d="m 702.47,531.58 -2.19,-10.17 -2.8,10.17 z m -1.56,-1.26 h -1.78 l 1,-3.64 z"
       id="path319"
       style="fill:#ffffff" />
    <path
       class="cls-1"
       d="m 723,548.88 c 2,6.87 3.61,8.17 4.25,8.39 l 4.23,1.67 v 9.12 h -31.14 v -9.26 l 4.12,-1.11 c 0.91,-0.28 3,-1 1.75,-8.69 l -0.27,-0.64 -1.4,-1.39 0.07,0.33 c 0.82,3.85 1.39,8.6 -0.52,9.19 l -4.07,1.1 -0.38,0.1 -0.39,-0.1 -4,-1.07 c -0.55,-0.2 -2,-3.52 -0.63,-9.11 l 0.35,-1.31 h 8.51 L 701,544.85 h -7 l -0.59,2.25 c -1.52,5.93 -0.07,10.06 1.52,10.63 l 4,1.07 v 9.26 h -27.27 v -9.2 l 3.6,-1.15 c 2,-0.63 3.75,-3.29 6.93,-15 l 1.14,-4.22 -1.18,-0.45 -1.15,4.38 c -2.57,9.45 -4.34,13.53 -6.1,14.1 l -3.6,1.14 -0.87,0.28 v 11.38 h 62.32 v -11.24 l -0.79,-0.31 -4.23,-1.67 c -0.09,0 -1.44,-0.73 -3.34,-7 L 724,549 Z"
       id="path321"
       style="fill:#ffffff" />
    <path
       class="cls-1"
       d="m 791.46,568.06 h -15.88 l -2.6,-7.27 c -0.53,-0.06 -1,-0.12 -1.4,-0.18 l 2.82,7.88 0.3,0.83 h 18 v -1.11 l -1.26,-2.11 z"
       id="path323"
       style="fill:#ffffff" />
    <path
       class="cls-1"
       d="m 758.12,550.33 c 0,6.18 1.36,7.29 2.55,7.58 l 3.71,0.84 v 1.69 h 0.27 a 7,7 0 0 0 1,-0.18 v -2.52 l -1,-0.22 -3.71,-0.85 c -1.29,-0.31 -1.57,-3.62 -1.57,-6.35 v -23.74 l 11.56,32.21 1.2,-0.37 -14,-39.07 z"
       id="path325"
       style="fill:#ffffff" />
    <path
       class="cls-1"
       d="M 747.69,550.33 V 511 c 0,-4.9 -1.19,-7.33 -2.38,-7.57 l -4.9,-0.76 v -9.4 h 28.16 L 781,527.14 V 511 c 0,-4.9 -1.2,-7.33 -2.39,-7.57 l -4.9,-0.76 v -9.4 h 25 v 9.39 l -4.85,0.79 c -1.1,0.2 -2.43,2.32 -2.43,7.55 v 50.9 l 0.86,0.62 a 2.24,2.24 0 0 1 0.4,0.41 V 511 c 0,-4.75 1.13,-6.2 1.43,-6.33 l 4.79,-0.77 1.06,-0.17 V 492 H 772.5 v 8.31 l -2.76,-7.49 -0.3,-0.82 h -30.29 v 11.7 l 1.07,0.17 4.9,0.76 c 0.19,0.12 1.32,1.66 1.32,6.33 v 39.37 c 0,0.44 0,0.84 0,1.23 l 1.15,1.57 c 0.06,-0.8 0.1,-1.71 0.1,-2.8 z m 30.77,-45.7 c 0.19,0.12 1.32,1.65 1.32,6.33 v 9.13 l -5.95,-16.18 z"
       id="path327"
       style="fill:#ffffff" />
    <path
       class="cls-1"
       d="m 764.38,562.77 v 5.29 h -24 v -9.4 l 5,-0.78 c 0.32,-0.06 1.13,-0.24 1.7,-2 l -1,-1 c -0.28,1.27 -0.67,1.75 -0.93,1.8 l -4.9,0.77 -1.07,0.17 v 11.73 h 26.48 v -6.78 l -0.29,0.09 z"
       id="path329"
       style="fill:#ffffff" />
    <path
       class="cls-1"
       d="m 203.35,500.84 3.2,0.49 c 2.6,0.53 4.09,4 4.09,9.63 v 35 0 c 0.17,0 2.23,-1 2.23,-1 l 3.58,-2 2.38,-0.27 2,0.75 1.55,0.32 v -11.59 h 11.27 v -7 h -11.21 v -15.35 c 0,-5.64 2.71,-8.49 8,-8.49 a 11.65,11.65 0 0 1 1.94,0.17 v -0.5 -0.47 l 0.34,-1.12 -0.55,0.19 h -0.49 l -2,-0.64 -2.58,-0.44 2.22,-0.15 2.92,0.76 1.79,-0.91 1.89,-1.36 1.71,1 2.07,-1 5.3,-0.73 0.79,-0.84 h -42.44 z"
       id="path331"
       style="fill:#ffffff" />
    <path
       class="cls-1"
       d="m 206.57,560 -3.22,0.51 V 566 h 27.51 v -5.54 l -3.11,-0.71 c -4.44,-1.17 -5.31,-4.33 -5.31,-9.39 V 546 a 1.21,1.21 0 0 1 -0.29,0 c -0.37,-0.06 -0.61,-0.49 -1.07,-0.92 -0.46,-0.43 -1.72,-0.22 -1.72,-0.22 0,0 -1.55,0 -2.14,0 -0.59,0 -1.4,0.13 -1.85,0.15 a 16.1,16.1 0 0 0 -2.74,1.67 l -1.16,0.65 -0.83,0.31 v 2.66 c 0,4.12 -0.47,8.9 -4.07,9.7 z"
       id="path333"
       style="fill:#ffffff" />
    <path
       class="cls-1"
       d="m 243.07,514.83 v 4.25 h 7.37 v -23.76 h -1.25 l -0.48,0.12 -3.06,1.14 -2.24,0.7 -2.28,0.1 -2.13,0.71 -1.1,0.32 -0.56,-0.14 -1.47,-0.61 -0.43,0.47 -1.58,0.68 -0.78,1.25 -0.54,1.45 c 5.46,0.94 10.53,5.49 10.53,13.32 z"
       id="path335"
       style="fill:#ffffff" />
    <path
       class="cls-1"
       d="m 267.44,501.33 c 2.61,0.53 4.09,4 4.09,9.63 v 25.16 l 0.77,-1.25 1.11,-1.21 v -4.62 c 0,0 -0.67,-2.63 -0.82,-3.35 a 4.9,4.9 0 0 1 0.15,-1.78 l 2.64,-3.23 0.51,-2.24 0.48,-3.19 -1,-2.18 c 0,0 -0.77,-2.52 -0.89,-2.79 a 17.65,17.65 0 0 1 -0.11,-2.44 c 0,-0.56 -0.1,-1.11 -0.12,-1.55 -0.02,-0.44 0.83,-1.26 0.83,-1.26 l 0.7,-1.81 c 0,0 -0.57,-0.47 -0.86,-0.68 -0.29,-0.21 -1.76,-1 -1.76,-1 l -1.14,-0.56 c 0,0 -2.27,0.1 -2.77,0.06 a 8.08,8.08 0 0 1 -1.24,-0.22 l -1.48,-0.88 c 0,0 -0.75,-0.15 -2.32,-0.39 v 1.33 z"
       id="path337"
       style="fill:#ffffff" />
    <path
       class="cls-1"
       d="m 264.25,498.21 8,2.11 3.82,0.84 1,-0.27 c 0,0 -0.24,-1.6 -0.26,-2.15 -0.02,-0.55 0.56,-1.2 0.77,-1.54 0.21,-0.34 0.94,-1.37 0.94,-1.37 l 0.15,-0.51 h -14.42 z"
       id="path339"
       style="fill:#ffffff" />
    <path
       class="cls-1"
       d="m 315.38,566.76 c 5.46,0 10.52,-2.35 10.52,-19.39 v -4.7 h -5.55 v 4.7 c 0,1.6 -0.19,6.79 -2.69,6.79 -2.5,0 -2.81,-3.63 -3.37,-10 -0.61,-6.74 -2.27,-10.52 -5.71,-13 L 308.37,531 v -0.8 l 0.27,-0.15 c 3,-1.66 8,-6 8,-16.16 0,-12.09 -7.22,-18.48 -20.87,-18.48 h -12.2 l -1.3,1.81 -1.25,0.42 -1.21,2.87 -1.07,2.64 0.25,2.21 v 1.26 l -1,-0.7 -1.84,0.08 -0.47,1.13 0.59,1.83 -0.35,0.53 1.49,3.57 1.69,3.18 -0.68,2.92 v 0.82 l 0.71,0.93 -2.3,3.5 -1.74,0.82 -0.36,3.72 3.89,0.87 3.77,1.61 7.26,1.69 2.69,0.55 1.48,1.2 h 0.73 a 5.94,5.94 0 0 1 5.06,3 c 1.62,0.59 3.41,1.21 3.41,1.21 l 1.55,1.64 h 2 l 2.45,0.26 2.81,1.4 h 0.22 l 1.21,0.69 -1.43,-0.72 -2.61,-0.3 -2.24,-0.49 -2,0.23 -1.86,-1.77 -2.85,-1 a 29.09,29.09 0 0 1 2.55,9.98 c 1.54,13.45 4.59,17.76 12.56,17.76 z M 295.81,525 h -12.48 v -13.5 c 0,-5.16 1.32,-7.36 4.4,-7.36 h 8.08 c 4.11,0 8.26,3.3 8.26,10.66 0,6.41 -4.2,10.2 -8.26,10.2 z"
       id="path341"
       style="fill:#ffffff" />
    <path
       class="cls-1"
       d="m 267.47,560 -3.22,0.51 V 566 h 27.05 v -5.5 l -2.16,-0.28 c -5.2,-0.58 -5.81,-5.9 -5.81,-9.86 v -15.58 h 7.84 l -3.05,-1.39 -5,-1 -8.12,-1.69 h -1.11 l 0.13,3.1 -0.4,2.69 -1.62,3.38 -0.43,-0.09 v 10.55 c -0.04,4.09 -0.5,8.87 -4.1,9.67 z"
       id="path343"
       style="fill:#ffffff" />
    <path
       class="cls-1"
       d="m 374.19,541.3 v 5.05 c 0,9 -3.41,13.39 -10.43,13.39 -5.41,0 -8,-2.75 -8,-8.38 V 532.17 H 367 v -7 h -11.28 v -15.35 c 0,-5.95 2.41,-8.49 8,-8.49 5.19,0 10.43,4.17 10.43,13.5 v 4.25 h 6.11 v -23.76 h -43.63 v 5.52 l 3.2,0.49 c 2.6,0.53 4.09,4 4.09,9.63 v 39.37 c 0,3.84 -0.43,9 -4.09,9.62 l -3.2,0.51 V 566 h 30.27 l 0.17,-0.05 h 8.14 l 5.09,-1.44 V 541.3 Z"
       id="path345"
       style="fill:#ffffff" />
    <polygon
       class="cls-1"
       points="415.02,565.97 415.02,563.42 406.99,560.95 400.44,563.93 397.34,565.97 "
       id="polygon347"
       style="fill:#ffffff" />
    <path
       class="cls-1"
       d="m 412.93,560 c -3.67,-0.88 -4.17,-5.36 -4.17,-9.62 v -39.9 h 1.13 L 429.8,566 h 12.31 v -55 c 0,-5.69 1.48,-9.11 4.18,-9.62 l 3.1,-0.5 v -5.52 h -20.8 v 5.52 l 3.2,0.49 c 2.61,0.53 4.09,4 4.09,9.63 v 25.22 h -1 l -15,-40.86 h -24.6 v 5.52 l 3.2,0.49 c 2.6,0.53 4.08,4 4.08,9.63 v 39.37 c 0,4.09 -0.46,8.87 -4.06,9.62 l -3.22,0.51 v 4.09 l 0.42,-0.42 5.76,-2.18 3,-4.37 2.78,-6.56 -0.4,3.31 -0.2,1.66 -1.39,4 2,-0.6 H 409 l 6,2.19 v -1.12 z"
       id="path349"
       style="fill:#ffffff" />
    <path
       class="cls-1"
       d="M 511.76,527.73 V 495 h -6.69 c -0.05,2 -0.44,3.65 -2.34,3.65 -1.6,0 -4.08,-1.08 -5.72,-2 a 19.39,19.39 0 0 0 -9,-2.09 c -13.78,0 -23,13.08 -23,25.3 v 18.9 c 0,13.49 6.38,27.92 24.28,27.92 16.31,0 22.28,-11.94 22.46,-23.3 h -10.66 c -0.1,11.64 -3.75,17.07 -11.45,17.07 -6.55,0 -10.31,-5.88 -10.31,-16.12 V 514 c 0,-3.25 0,-13.16 8.72,-13.16 9.42,0 12.93,15.86 13,26.86 z"
       id="path351"
       style="fill:#ffffff" />
    <path
       class="cls-1"
       d="m 550.55,501.34 3.1,-0.5 v -5.52 h -26.37 v 5.52 l 3.19,0.49 c 2.61,0.53 4.09,4 4.09,9.63 v 39.37 c 0,4.09 -0.46,8.87 -4.06,9.62 l -3.22,0.51 V 566 h 26.48 v -5.51 l -3.19,-0.5 c -3.73,-0.75 -4.2,-5.54 -4.2,-9.63 v -16.14 h 19.71 v 16.11 c 0,4.1 -0.49,8.89 -4.29,9.62 l -3.1,0.5 V 566 H 564 l 1.41,-5.6 1.29,-0.37 1.37,-2.89 1.21,-2.65 -0.15,-2.28 0.07,-1.29 1,0.76 h 1.9 l 0.53,-1.14 -0.53,-1.9 0.38,-0.53 -1.37,-3.72 -1.61,-3.39 0.83,-3 v -0.83 l -0.68,-1 2.5,-3.49 1.85,-0.68 0.54,-3.79 -4,-1.06 -3.79,-1.82 -0.69,-0.19 v 0.12 h -19.69 v -8.5 l -0.4,-0.16 -1.51,-1.75 -2.05,-0.07 -2.51,-0.38 -2.81,-1.56 h -0.22 l -1.22,-0.76 1.44,0.79 2.66,0.42 2.28,0.61 2.05,-0.15 1.82,1.89 0.47,0.2 V 511 c 0,-5.73 1.48,-9.15 4.18,-9.66 z"
       id="path353"
       style="fill:#ffffff" />
    <path
       class="cls-1"
       d="m 577.77,521.41 -0.49,0.74 -1.2,1.19 -0.23,4.73 c 0,0 0.57,2.73 0.69,3.47 a 5.12,5.12 0 0 1 -0.23,1.82 l -2.85,3.19 -0.62,2.27 -0.63,3.25 0.91,2.27 c 0,0 0.68,2.62 0.8,2.91 a 18.82,18.82 0 0 1 0,2.5 c 0,0.57 0.05,1.14 0.05,1.59 0,0.45 -0.91,1.26 -0.91,1.26 l -0.79,1.82 c 0,0 0.57,0.51 0.85,0.74 0.28,0.23 1.77,1.14 1.77,1.14 l 1.13,0.62 c 0,0 1.94,0 2.67,0.05 a 18.52,18.52 0 0 1 -0.92,-6.64 z"
       id="path355"
       style="fill:#ffffff" />
    <path
       class="cls-1"
       d="m 585.06,560.49 h -0.11 l -3,-0.49 a 3.94,3.94 0 0 1 -2.14,-1.16 l -4,-1.24 -3.87,-1 -1,0.23 c 0,0 0.17,1.65 0.17,2.22 0,0.57 -0.62,1.2 -0.85,1.54 -0.23,0.34 -1,1.36 -1,1.36 l -0.68,2 -1.45,2.05 h 17.93 z"
       id="path357"
       style="fill:#ffffff" />
    <path
       class="cls-1"
       d="m 582,501.34 3.1,-0.5 v -5.52 h -26.41 v 5.52 l 3.08,0.49 c 2.79,0.51 4.31,3.93 4.31,9.63 v 13.22 0 l 8.27,2.12 h 1.14 v -3.18 l 0.53,-2.74 1.75,-3.21 V 511 c 0,-5.73 1.49,-9.15 4.23,-9.66 z"
       id="path359"
       style="fill:#ffffff" />
    <path
       class="cls-1"
       d="m 611.7,550.33 v -38.68 a 3.25,3.25 0 0 1 -0.56,0.37 3.07,3.07 0 0 0 -1.14,0.91 l -4.53,0.05 v 37.35 c 0,4.09 -0.46,8.87 -4.06,9.62 l -3.22,0.51 v 3.44 l 1.51,-0.32 3.19,-1 2.33,-0.63 h 2.33 l 2.22,-0.63 1.14,-0.28 0.57,0.17 1.48,0.68 0.45,-0.45 1.66,-0.63 0.61,-0.9 c -3.5,-1.01 -3.98,-5.39 -3.98,-9.58 z"
       id="path361"
       style="fill:#ffffff" />
    <path
       class="cls-1"
       d="m 658.1,501.34 3.22,-0.5 v -5.52 h -24 l -3.65,19 h 0.44 c 0.61,0 1.44,-0.07 1.9,-0.07 a 16.46,16.46 0 0 0 2.88,-1.6 l 1.21,-0.6 0.75,-0.25 0.26,-1.36 h 1.19 v 0.94 a 5.05,5.05 0 0 1 1.6,-0.24 c 0.68,0.15 1.37,-0.23 2.28,0 0.91,0.23 2.58,0.53 2.58,0.53 l 3.87,2.05 1.36,0.93 V 511 c 0.01,-5.64 1.52,-9.14 4.11,-9.66 z"
       id="path363"
       style="fill:#ffffff" />
    <path
       class="cls-1"
       d="m 638.18,560 -2.1,0.48 V 566 h 25.35 v -5.51 l -3.2,-0.5 c -3.72,-0.75 -4.2,-5.54 -4.2,-9.63 v -33.68 c -0.6,-0.58 -1.21,-1.16 -1.46,-1.36 a 14.75,14.75 0 0 0 -1.88,-1.14 19.34,19.34 0 0 0 -2.16,-0.74 c 0,0 -1.94,-0.06 -2.67,-0.17 C 645.13,513.16 644,513 643.64,513 a 9.76,9.76 0 0 0 -1.3,0.22 v 37.12 c 0,4.25 -0.49,8.73 -4.16,9.66 z"
       id="path365"
       style="fill:#ffffff" />
    <polygon
       class="cls-1"
       points="616.54,560.1 616.22,560.03 616.15,560.22 "
       id="polygon367"
       style="fill:#ffffff" />
    <path
       class="cls-1"
       d="m 598.19,495.32 v 5.52 l 3.19,0.49 c 2.56,0.52 4,3.91 4.08,9.31 h 0.31 a 19.84,19.84 0 0 0 3.41,-1.82 l 1.75,-0.76 3.11,-1 1.52,0.08 0.91,-0.91 0.45,1.29 v 1 l 1.37,0.83 1.06,1.29 2.36,2.73 2.12,0.46 2.35,-0.31 h 0.21 l -3.67,-18.18 z"
       id="path369"
       style="fill:#ffffff" />
    <path
       class="cls-1"
       d="m 630.34,566 10.19,-52.35 c -0.66,0.26 -2,0.85 -2,0.85 l -3.76,1.93 -1.52,0.11 -3.07,16 -3.39,-16.8 c -1.33,0.42 -3.12,1 -3.23,1 A 24.74,24.74 0 0 1 621,515.6 c -0.68,-0.34 -2.22,-2.5 -2.67,-3 a 19.81,19.81 0 0 0 -1.88,-1.82 20.7,20.7 0 0 1 -1.65,-1.65 c 0,0 -1,0.86 -1.91,1.66 L 623.81,566 Z"
       id="path371"
       style="fill:#ffffff" />
    <polygon
       class="cls-1"
       points="611.08,561.53 608.92,562.5 603.46,563.01 601.69,564.72 599.06,565.97 617.96,565.97 617.96,560.91 616.66,560.51 614.78,561.36 612.79,562.67 "
       id="polygon373"
       style="fill:#ffffff" />
    <path
       class="cls-1"
       d="m 705,559.71 -2.59,0.7 V 566 h 26.94 v -5.61 l -2.85,-1.12 c -2.11,-0.74 -4,-4.11 -5.76,-10.54 l -3.49,-0.28 -1.23,-1.5 -5.58,1.91 -2.06,0.62 c 0.94,6.12 -0.12,9.24 -3.38,10.23 z"
       id="path375"
       style="fill:#ffffff" />
    <path
       class="cls-1"
       d="m 675.9,559.71 -2.14,0.68 V 566 h 23.07 v -5.56 l -2.57,-0.69 c -2.82,-1 -4.64,-6.22 -2.87,-13.16 l 1,-3.81 h 4.4 l -1.81,-0.91 -5,0.08 -4.68,-2.5 -1,3.88 c -3.19,11.37 -5.21,15.36 -8.4,16.38 z"
       id="path377"
       style="fill:#ffffff" />
    <path
       class="cls-1"
       d="m 689.93,540.93 5.5,-0.24 3.69,2.06 H 707 l 0.9,3.82 c 0.11,0.54 0.21,1.07 0.3,1.57 l 0.77,0.14 3.78,-1.91 3.2,-0.81 2,2.13 2.55,0.09 c -0.08,-0.28 -0.15,-0.56 -0.23,-0.84 L 707,495.32 h -9.78 l -6,22.29 1.42,0.42 3.57,-0.68 2.81,0.92 0.84,-3.06 h 1.28 l 0.83,3.85 2.51,0.49 4.32,0.83 -6.69,-0.69 3,14 h -10.38 l 4.09,-14.86 -2.54,-0.76 -3.87,0.85 -1.46,-0.51 -5.49,20.31 z"
       id="path379"
       style="fill:#ffffff" />
    <path
       class="cls-1"
       d="m 789.36,566 v -1.42 l -1.25,-0.5 -3.29,-0.15 a 27.3,27.3 0 0 1 -4.2,0.12 c -0.5,-0.19 -0.7,-0.87 -1.22,-1.6 -0.52,-0.73 -2.31,-0.84 -2.31,-0.84 l -1.74,-0.38 1.71,4.77 z"
       id="path381"
       style="fill:#ffffff" />
    <path
       class="cls-1"
       d="m 745.73,560 -3.22,0.51 V 566 h 19.77 v -3 a 6.79,6.79 0 0 1 -2.35,0 c -0.9,-0.37 -1.93,0 -3.12,-0.54 -1.19,-0.54 -3.41,-1.35 -3.41,-1.35 l -4.7,-3.65 a 4.17,4.17 0 0 1 -2.97,2.54 z"
       id="path383"
       style="fill:#ffffff" />
    <path
       class="cls-1"
       d="m 793.54,501.34 3.11,-0.5 v -5.52 h -20.8 v 5.52 l 3.2,0.49 c 2.6,0.53 4.08,4 4.08,9.63 v 25.22 h -1 l -15,-40.86 h -24.62 v 5.52 l 3.19,0.49 c 2.61,0.53 4.09,4 4.09,9.63 v 39.37 a 24.47,24.47 0 0 1 -0.43,5.09 c 0.68,0.68 1.62,1.38 2,1.74 a 26.67,26.67 0 0 0 2.79,1.53 c 0,0 2.63,0.55 3.62,0.88 0.99,0.33 2.42,0.83 3,0.92 a 12.48,12.48 0 0 0 1.49,0 v -0.08 l -2.1,-0.48 c -3.67,-0.88 -4.16,-5.36 -4.16,-9.62 v -39.9 h 1.12 l 17.08,47.59 2.88,0.3 2.6,1.66 2.68,1.19 c 0,0 6.5,-0.87 6.73,-0.83 a 2.42,2.42 0 0 1 0.27,0.14 V 511 c 0,-5.73 1.49,-9.15 4.18,-9.66 z"
       id="path385"
       style="fill:#ffffff" />
    <path
       class="cls-1"
       d="m 376.47,591.79 c 3.58,0 7.65,2.75 9.15,4.66 a 16.92,16.92 0 0 1 2.83,6.4 h 4.07 v -15.63 h -4.07 a 3.22,3.22 0 0 1 -2.25,1.25 13.34,13.34 0 0 1 -3.82,-0.83 25.34,25.34 0 0 0 -6.91,-1 c -7.84,0 -14.3,5 -14.9,13.07 0.58,0.11 1.32,0.2 1.32,0.2 l 2.38,0.18 3.08,-0.16 2.32,-0.77 a 5,5 0 0 1 0,-0.55 6.57,6.57 0 0 1 6.8,-6.82 z"
       id="path387"
       style="fill:#ffffff" />
    <path
       class="cls-1"
       d="m 371,617.07 6.49,2.66 c 2.74,1.17 7.15,3.16 7.15,7.9 a 6.21,6.21 0 0 1 -6.07,6.32 13.73,13.73 0 0 1 -11.89,-6.07 16.61,16.61 0 0 1 -2.58,-6.15 h -4.15 v 17.87 h 4.15 c 0.75,-1.49 1.67,-3.16 3,-3.16 1.33,0 2.82,0.75 4.74,1.67 a 18,18 0 0 0 7.81,2 c 8.48,0 15,-6.32 15,-15.71 0,-5.48 -1.47,-9.29 -4.58,-12.17 a 1.8,1.8 0 0 1 -0.56,-0.09 c -0.88,-0.36 -1.87,0 -3,-0.53 -1.13,-0.53 -3.31,-1.31 -3.31,-1.31 l -4.67,-3.63 -0.17,-0.16 c -5,-1.5 -7.83,-2.86 -8.47,-6.09 a 11.82,11.82 0 0 1 -2.34,0.58 c -0.4,-0.07 -6.58,-0.42 -6.58,-0.42 l -0.36,-0.12 c 0,0.17 0,0.32 0,0.49 -0.1,8.31 2.89,12.96 10.39,16.12 z"
       id="path389"
       style="fill:#ffffff" />
    <polygon
       class="cls-1"
       points="442.91,587.22 432.97,587.22 434.84,589.04 440.48,591.91 442.91,592.49 "
       id="polygon391"
       style="fill:#ffffff" />
    <path
       class="cls-1"
       d="m 417.63,634.45 -2.66,0.42 v 4.73 h 20.12 v -4.73 l -2.57,-0.42 c -2.17,-0.42 -2.83,-2.83 -2.83,-6.65 v -3.53 l -1.39,0.18 -2,-0.45 -1.42,1 -0.31,-1.82 0.23,-1.32 -1.62,-1.43 -1.11,-2 -1.69,-2.84 v 12.21 c 0,3.82 -0.67,6.2 -2.75,6.65 z"
       id="path393"
       style="fill:#ffffff" />
    <path
       class="cls-1"
       d="m 407.16,608.09 h 4.9 v -4.65 c 0,-4.91 1.25,-10.32 4.83,-10.32 3.16,0 3.49,4.91 3.49,8.07 v 10.06 l 0.56,0.41 c 0.83,0.62 2.37,3.85 2.86,4.64 a 24.87,24.87 0 0 0 2.08,2.86 30.8,30.8 0 0 1 1.81,2.58 c 0,0 0.9,-0.57 2,-1.22 v -19.33 c 0,-3.16 0.33,-8.07 3.49,-8.07 3.58,0 4.82,5.41 4.82,10.32 v 4.65 h 4.91 v -14.5 l -4.58,-1.27 -3.69,-0.92 -3.64,-3.28 c 0,0 -0.95,-0.48 -1.73,-0.9 h -22.11 z"
       id="path395"
       style="fill:#ffffff" />
    <path
       class="cls-1"
       d="m 463.62,639.6 -3.15,-1 -5,-1.32 v 2.29 z"
       id="path397"
       style="fill:#ffffff" />
    <path
       class="cls-1"
       d="m 455.47,592 2.66,0.42 a 2.84,2.84 0 0 1 1.93,1.93 v -2.2 l 0.72,-3.69 0.65,-1.2 h -6 z"
       id="path399"
       style="fill:#ffffff" />
    <path
       class="cls-1"
       d="m 476,634.87 -1.91,-0.26 c -3,-0.33 -3.91,-3 -3.91,-6.81 v -11 H 478 c 3.83,0 5.16,5.24 5.66,10.06 1.16,10.15 3.58,13.3 9.56,13.3 4.91,0 8.07,-3 8.07,-14.55 v -3.82 h -4.83 v 3.82 c 0,1.83 -0.33,4.58 -1.58,4.58 -1.25,0 -1.66,-2.25 -2.07,-7 -0.42,-4.57 -1.5,-7.73 -4.33,-9.81 v -0.16 c 3.16,-1.75 6.07,-5.49 6.07,-12.14 0,-8.57 -5,-13.89 -15.63,-13.89 h -6.5 l -2.11,4.36 -1.15,-0.23 -2.08,-0.7 -2.23,-3.38 -2.38,3.54 -1.62,1.61 -0.2,4.29 a 18.09,18.09 0 0 1 0.15,2.32 v 1 c 0.23,1.17 0.57,2.86 0.67,3.48 a 6.9,6.9 0 0 1 -0.31,2.46 l -0.36,0.41 v 21.45 c 0,3.82 -0.67,6.23 -2.67,6.65 l -2,0.32 0.75,0.63 c 0.38,0.31 2.38,1.54 2.38,1.54 l 1.54,0.84 c 0,0 3.15,0 3.84,0.08 a 11.85,11.85 0 0 1 1.69,0.39 l 2,1.3 0.22,0.05 H 476 Z m -5.82,-35.43 c 0,-4 1.08,-5 2.83,-5 h 5.9 c 2.74,0 5.65,2.16 5.65,7.4 0,4.49 -2.91,7.06 -5.65,7.06 h -8.73 z"
       id="path401"
       style="fill:#ffffff" />
    <path
       class="cls-1"
       d="m 516.51,634.45 -2.66,0.42 v 4.73 h 1.55 l 0.35,-0.82 -0.1,0.82 h 30.87 v -11.32 l -5.3,-1.71 c -0.31,4.36 -2,7.71 -7.17,7.71 -4.24,0 -5.49,-2.41 -5.49,-5.73 v -2.46 l -0.78,0.27 -3.73,1.12 -0.66,-1.58 -2,-2 -2.18,-1.09 v 5 c -0.04,3.81 -0.71,6.31 -2.7,6.64 z"
       id="path403"
       style="fill:#ffffff" />
    <path
       class="cls-1"
       d="M 536.79,614.91 V 609 h -8.23 v -10.8 c 0,-3.83 1.25,-5.82 5.49,-5.82 3.91,0 7.23,3.24 7.23,9.48 v 3.49 h 5.24 V 587.22 H 513.85 V 592 l 2.66,0.42 c 1.66,0.33 2.66,2.74 2.66,6.65 v 22.73 l 2.53,1.41 2.57,2.25 2.05,0.36 2.24,-1.13 v -9.78 z"
       id="path405"
       style="fill:#ffffff" />
    <path
       class="cls-1"
       d="m 541.28,620.81 v 4.54 h 1.36 c 0,0 3.31,2.06 3.75,2.22 h 0.13 v -6.77 z"
       id="path407"
       style="fill:#ffffff" />
    <path
       class="cls-1"
       d="m 561.74,634.45 -2.66,0.42 v 4.73 h 13.85 -0.11 c -1.16,-0.51 -3.31,-1.31 -3.31,-1.31 l -4.67,-3.63 -1.41,-1.37 a 2.37,2.37 0 0 1 -1.69,1.16 z"
       id="path409"
       style="fill:#ffffff" />
    <path
       class="cls-1"
       d="m 586.52,620.81 v 4.08 c 0,5.15 -1.41,9.39 -7.23,9.39 -4.24,0 -5.49,-2.41 -5.49,-5.73 V 614.91 H 582 V 609 h -8.2 v -10.8 c 0,-3.83 1.25,-5.82 5.49,-5.82 3.91,0 7.23,3.24 7.23,9.48 v 3.49 h 5.24 V 587.22 H 559.08 V 592 l 2.66,0.42 c 1.67,0.33 2.67,2.74 2.67,6.65 v 28.73 a 19.91,19.91 0 0 1 -0.23,3.18 c 0.49,0.67 0.94,1.27 1.16,1.52 a 20,20 0 0 0 2.24,2 26.22,26.22 0 0 0 2.7,1.49 c 0,0 2.56,0.53 3.52,0.85 a 29.74,29.74 0 0 0 2.89,0.9 c 0.53,0.09 3.53,-0.09 3.76,-0.05 0.23,0.04 3.33,-0.74 3.33,-0.74 l 5.44,-1.7 2.54,0.27 v -14.71 z"
       id="path411"
       style="fill:#ffffff" />
    <path
       class="cls-1"
       d="m 591.76,638.58 c -0.68,-0.15 -1.65,-0.36 -2.14,-0.45 -0.81,-0.14 -1.93,-0.23 -2.54,-0.34 -0.61,-0.11 -4.21,1.45 -4.21,1.45 l -1.21,0.36 h 10.1 z"
       id="path413"
       style="fill:#ffffff" />
    <polygon
       class="cls-1"
       points="633.86,587.22 634.23,587.3 640.07,588.42 640.07,587.22 "
       id="polygon415"
       style="fill:#ffffff" />
    <path
       class="cls-1"
       d="m 614.8,634.45 -2.66,0.42 v 4.73 h 20.12 v -4.73 l -2.58,-0.42 c -2.16,-0.42 -2.83,-2.83 -2.83,-6.65 v -6.93 l -2.13,-0.59 -3.69,-0.92 -3.49,-3.1 v 11.54 c 0,3.82 -0.66,6.2 -2.74,6.65 z"
       id="path417"
       style="fill:#ffffff" />
    <path
       class="cls-1"
       d="m 630.35,593.12 c 3.57,0 4.82,5.41 4.82,10.32 v 4.65 h 4.9 v -19.67 l -9.61,-1 -0.67,-0.2 h -25.47 v 20.47 l 0.39,0.4 h 4.52 v -4.65 c 0,-4.91 1.24,-10.32 4.82,-10.32 3.16,0 3.49,4.91 3.49,8.07 v 12.63 l 0.52,0.11 3.18,3.07 5.61,2.86 v -18.67 c 0,-3.19 0.34,-8.07 3.5,-8.07 z"
       id="path419"
       style="fill:#ffffff" />
    <polygon
       class="cls-1"
       points="401.52,607.65 401.52,581.58 418.69,581.58 418.13,580.94 415.36,580.84 411.98,580.33 411.98,580.33 401.51,580.33 401.51,580.32 353.02,580.32 353.02,597.43 353.11,597.43 354.27,597.41 354.27,581.57 400.25,581.57 400.25,608.04 "
       id="polygon421"
       style="fill:#ffffff" />
    <path
       class="cls-1"
       d="M 401.52,645.27 V 610 l -0.84,-0.12 a 1.63,1.63 0 0 0 -0.43,0 v 35.37 h -46 V 598.5 l -1.26,-0.1 v 48.11 h 92.41 l 0.32,-1.25 z"
       id="path423"
       style="fill:#ffffff" />
    <path
       class="cls-1"
       d="m 449.82,638.45 v -17.93 l -1.26,0.78 v 19.81 z"
       id="path425"
       style="fill:#ffffff" />
    <polygon
       class="cls-1"
       points="474.45,581.57 476.19,580.32 448.56,580.32 448.56,580.33 418.51,580.33 419.71,581.58 448.56,581.58 448.56,593.86 449.82,594.18 449.82,581.57 "
       id="polygon427"
       style="fill:#ffffff" />
    <path
       class="cls-1"
       d="m 449.33,616.25 a 2.85,2.85 0 0 1 0.49,-0.22 v -20.2 l -1.26,-0.6 v 21.43 c 0.36,-0.18 0.64,-0.33 0.77,-0.41 z"
       id="path429"
       style="fill:#ffffff" />
    <path
       class="cls-1"
       d="m 479.51,581.57 1.36,-0.53 2.5,0.53 h 3.23 a 2.91,2.91 0 0 0 0.93,-0.22 c 0.34,-0.2 1.06,-0.71 1.53,-1 h -12.38 l 1.4,1.25 z"
       id="path431"
       style="fill:#ffffff" />
    <path
       class="cls-1"
       d="m 451.28,645.25 -0.43,1.26 h 29.33 l -2.27,-1.26 z"
       id="path433"
       style="fill:#ffffff" />
    <path
       class="cls-1"
       d="m 484,646.16 0.31,0.35 h 9.29 l 3.47,-1.11 0.52,-0.15 h -14.45 c 0.25,0.28 0.65,0.75 0.86,0.91 z"
       id="path435"
       style="fill:#ffffff" />
    <path
       class="cls-1"
       d="m 531.36,581.43 -0.46,0.14 h 1 z"
       id="path437"
       style="fill:#ffffff" />
    <path
       class="cls-1"
       d="m 521.26,581.57 a 10.5,10.5 0 0 1 -1.21,-1.25 h -24.72 l -1.7,1.25 h 13.31 v 36.66 l 0.88,0.44 h 0.37 v -37.1 z"
       id="path439"
       style="fill:#ffffff" />
    <polygon
       class="cls-1"
       points="506.94,619.16 506.94,643.56 507.91,643.32 508.19,643.41 508.19,619.63 507.83,619.64 "
       id="polygon441"
       style="fill:#ffffff" />
    <path
       class="cls-1"
       d="m 564.18,581.57 a 15.65,15.65 0 0 0 -2,-1.25 h -16.65 l -0.26,0.11 -2.22,1.14 h 9.13 V 628 l 1.25,-0.07 v -46.36 z"
       id="path443"
       style="fill:#ffffff" />
    <polygon
       class="cls-1"
       points="601.47,581.57 602.25,581.14 603.9,580.32 598.67,580.32 597.41,580.32 565.65,580.32 567.48,581.57 597.41,581.57 597.41,583.81 598.67,583.12 598.67,581.57 "
       id="polygon445"
       style="fill:#ffffff" />
    <path
       class="cls-1"
       d="m 607.76,645.25 h -9.09 v -4.15 l -1.26,0.07 v 4.08 h -44 v -16.34 l -1.25,-0.08 v 16.42 h -41.27 l -0.44,0.3 -0.45,-0.3 h -1.81 v -1.2 h -0.05 l -1.2,0.54 v 0.7 h -1.58 l -0.14,0.07 -7.38,0.69 -0.52,0.5 h 111.19 v -0.08 z"
       id="path447"
       style="fill:#ffffff" />
    <polygon
       class="cls-1"
       points="605.86,581.43 603.78,581.43 603.59,581.57 606.1,581.57 "
       id="polygon449"
       style="fill:#ffffff" />
    <polygon
       class="cls-1"
       points="646.98,646.51 646.98,634.56 645.73,635.97 645.73,645.25 642.1,645.25 642.02,645.68 642.35,646.51 "
       id="polygon451"
       style="fill:#ffffff" />
    <path
       class="cls-1"
       d="m 611.76,646.51 h 8.08 a 4.23,4.23 0 0 0 1.59,-0.9 l 5.52,0.9 h 4.21 l 2.55,-1.26 h -22.86 c 0.3,0.44 0.62,0.89 0.91,1.26 z"
       id="path453"
       style="fill:#ffffff" />
    <polygon
       class="cls-1"
       points="646.46,620.08 646.98,617.36 646.98,580.32 606.32,580.32 606.65,580.84 607.71,581.57 645.73,581.57 645.73,624.38 646.46,624.38 "
       id="polygon455"
       style="fill:#ffffff" />
    <path
       class="cls-1"
       d="m 647,627 v -1 0.84 z"
       id="path457"
       style="fill:#ffffff" />
    <polygon
       class="cls-1"
       points="598.67,606.88 598.67,584.7 597.56,585.2 597.41,585.09 597.41,606.63 598.17,606.75 "
       id="polygon459"
       style="fill:#ffffff" />
    <path
       class="cls-1"
       d="m 597.66,638.32 1,-0.14 v -29.85 h -0.29 l -1,-0.54 v 30.46 z"
       id="path461"
       style="fill:#ffffff" />
    <path
       class="cls-1"
       d="m 354.77,434.11 h 12.87 v -8.35 h -2.33 v 1.81 c 0,2.29 -0.62,4.17 -3.21,4.17 -1.88,0 -2.44,-1.07 -2.44,-2.55 v -6.06 h 3.66 v -2.62 h -3.66 v -4.8 c 0,-1.7 0.56,-2.59 2.44,-2.59 1.88,0 3.21,1.44 3.21,4.21 v 1.56 h 2.33 v -8.06 h -14.52 v 2.11 l 1.19,0.18 c 0.73,0.15 1.18,1.22 1.18,3 v 12.78 a 3.91,3.91 0 0 1 -0.63,2.67 c 0.03,0.78 -0.05,1.86 -0.09,2.54 z"
       id="path463"
       style="fill:#ffffff" />
    <path
       class="cls-1"
       d="m 380.75,431.59 a 6.07,6.07 0 0 1 -5.28,-2.69 7.5,7.5 0 0 1 -1.15,-2.74 h -1.84 v 7.95 h 1.84 c 0.34,-0.67 0.74,-1.41 1.34,-1.41 a 5.47,5.47 0 0 1 2.1,0.74 7.9,7.9 0 0 0 3.47,0.89 c 3.77,0 6.65,-2.81 6.65,-7 0,-4.44 -2.14,-6.43 -7,-7.87 -2.81,-0.82 -4.14,-1.48 -4.1,-3.59 a 2.92,2.92 0 0 1 3,-3 6.06,6.06 0 0 1 4.06,2.07 7.41,7.41 0 0 1 1.26,2.85 h 1.9 v -6.95 h -1.81 a 1.45,1.45 0 0 1 -1,0.56 6.05,6.05 0 0 1 -1.7,-0.37 11.27,11.27 0 0 0 -3.06,-0.45 c -3.66,0 -6.65,2.44 -6.65,6.36 0,3.69 1.33,5.76 4.65,7.17 l 2.88,1.18 c 1.22,0.51 3.18,1.4 3.18,3.51 a 2.76,2.76 0 0 1 -2.74,2.79 z"
       id="path465"
       style="fill:#ffffff" />
    <path
       class="cls-1"
       d="m 408,419.67 c -0.05,-0.19 -0.18,-2.23 -0.18,-2.23 0,0 -0.37,-1 -0.47,-1.23 a 12.34,12.34 0 0 0 -1.46,-1.36 c 0,0 0,-0.82 0,-1.14 0,-0.32 0,-1.45 0,-1.45 l 0.05,-1.07 -1.16,-0.36 H 392.2 v 9.27 h 2.18 V 418 c 0,-2.18 0.56,-4.58 2.15,-4.58 1.4,0 1.55,2.17 1.55,3.58 v 11.82 c 0,1.7 -0.3,2.77 -1.22,3 l -1.18,0.18 v 2.11 h 8.94 V 432 l -1.15,-0.18 c -1,-0.19 -1.25,-1.26 -1.25,-3 V 417 c 0,-1.41 0.14,-3.58 1.55,-3.58 1.59,0 2.14,2.4 2.14,4.58 v 2.06 h 1.74 c -0.53,-0.84 0.35,-0.24 0.35,-0.39 z"
       id="path467"
       style="fill:#ffffff" />
    <path
       class="cls-1"
       d="m 408.09,415.48 v -4.65 h -1.62 c 0.49,1.35 1.24,3.48 1.42,4.05 0.03,0.12 0.11,0.33 0.2,0.6 z"
       id="path469"
       style="fill:#ffffff" />
    <path
       class="cls-1"
       d="m 415.38,432.49 c -0.07,-0.35 -0.56,-2 -0.56,-2 l -0.39,-1.09 c -0.07,1.37 -0.39,2.22 -1.17,2.39 l -1.19,0.18 v 2.11 h 2.33 l 1.12,-0.53 c 0,0 -0.08,-0.71 -0.14,-1.06 z"
       id="path471"
       style="fill:#ffffff" />
    <path
       class="cls-1"
       d="m 420.85,434.11 h 0.35 a 7.73,7.73 0 0 0 2.93,-0.58 l -0.93,-0.44 z"
       id="path473"
       style="fill:#ffffff" />
    <path
       class="cls-1"
       d="m 417.13,432.26 0.9,0.49 c 0,0 0.73,-1 1.15,-1.55 a 3.36,3.36 0 0 1 -0.56,-2.34 v -12.6 c 0,-1.7 0.07,-2.8 1.25,-2.8 h 2.51 c 1.59,0 2.88,1.47 2.88,8.9 a 17.76,17.76 0 0 1 -1.32,7 l 0.42,-0.24 4.22,0.33 a 13.59,13.59 0 0 0 1.67,-6.69 c 0,-8.61 -3.21,-11.9 -7.76,-11.9 h -10.42 v 2.11 l 1.19,0.18 c 0.74,0.15 1.18,1.22 1.18,3 v 12.09 l 0.52,0.85 z"
       id="path475"
       style="fill:#ffffff" />
    <polygon
       class="cls-1"
       points="393.91,404.05 395.31,405.07 430.36,405.07 430.36,403.82 393.16,403.82 "
       id="polygon477"
       style="fill:#ffffff" />
    <polygon
       class="cls-1"
       points="393.97,405.07 392.51,404.38 391.49,403.85 391.47,403.82 353.02,403.82 353.02,405.07 "
       id="polygon479"
       style="fill:#ffffff" />
    <path
       class="cls-1"
       d="m 408.17,441.08 0.24,-0.67 c 0,0 0.12,-0.25 0.29,-0.58 h -47.3 c 0.29,0.25 0.84,0.73 1.46,1.25 z"
       id="path481"
       style="fill:#ffffff" />
    <polygon
       class="cls-1"
       points="430.36,441.08 430.36,439.83 410.63,439.83 410.14,441.08 "
       id="polygon483"
       style="fill:#ffffff" />
    <path
       class="cls-1"
       d="m 580,425.09 a 8.27,8.27 0 0 0 5.28,-8.2 c 0,-4.21 -3.62,-6.32 -6.87,-6.32 -3.62,0 -7,2.29 -7,6.17 0,2.59 0.78,4.55 2.73,4.55 a 2.47,2.47 0 0 0 2.48,-2.41 1.79,1.79 0 0 0 -1.63,-2 1.06,1.06 0 0 1 -1,-1.11 c 0,-0.89 0.88,-2.8 3.54,-2.8 2.07,0 3,1.88 3,3.73 0,2.77 -1.48,4.65 -4.62,7.13 -2.18,1.77 -4.36,3.88 -4.36,8.64 v 1.63 h 2.22 c 0.11,-1.08 0.7,-1.59 1.44,-1.59 a 6.14,6.14 0 0 1 3,1 5.92,5.92 0 0 0 2.85,0.81 c 3,0 4.5,-2 4.5,-5.95 v -2.14 h -2.18 c 0,1.84 -0.11,3.32 -1.25,3.32 a 6.06,6.06 0 0 1 -2.29,-0.59 4.54,4.54 0 0 0 -2,-0.4 4.92,4.92 0 0 0 -3.33,1.25 l -0.07,-0.11 c 1.12,-2.43 3.71,-3.7 5.56,-4.61 z"
       id="path485"
       style="fill:#ffffff" />
    <path
       class="cls-1"
       d="m 604.34,425.39 c -0.59,0.33 -0.84,1.05 -1.65,1.48 -0.62,0.33 -1.59,0.91 -2,1.16 -0.31,2.67 -1,3.93 -2.43,3.93 -1.2,0 -1.88,-0.88 -2.25,-2.74 l -2.79,0.36 -1.61,0.13 a 6.82,6.82 0 0 0 6.65,4.62 c 5.23,0 7.71,-4.47 7.85,-11.36 a 10.15,10.15 0 0 1 -1.77,2.42 z"
       id="path487"
       style="fill:#ffffff" />
    <path
       class="cls-1"
       d="m 595.34,428 0.46,-0.05 a 53.16,53.16 0 0 1 -0.21,-5.54 c 0,-7.35 0.44,-9.42 2.66,-9.42 2.22,0 2.65,2.07 2.65,9.42 0,1.2 0,2.27 0,3.23 0.27,-0.2 0.53,-0.4 0.71,-0.51 0.61,-0.4 1.51,-1 1.8,-1.24 0.29,-0.24 1.53,-2 1.65,-2.15 a 20.21,20.21 0 0 0 1,-1.95 c -0.69,-5.72 -3.68,-9.17 -7.71,-9.17 -4.62,0 -7.87,4.59 -7.87,11.79 A 22.41,22.41 0 0 0 591,428 l 0.24,-0.14 c 0.18,-0.06 3.39,0.14 4.1,0.14 z"
       id="path489"
       style="fill:#ffffff" />
    <path
       class="cls-1"
       d="m 613.93,414.46 c -0.33,0.19 -0.79,0 -1.42,0 a 1.48,1.48 0 0 0 -0.87,0.37 5.8,5.8 0 0 0 -0.32,1.94 c 0,2.59 0.78,4.55 2.73,4.55 a 2.46,2.46 0 0 0 2.48,-2.41 1.79,1.79 0 0 0 -1.63,-2 1.06,1.06 0 0 1 -1,-1.11 c 0,-0.89 0.88,-2.8 3.54,-2.8 2.07,0 3,1.88 3,3.73 0,2.77 -1.48,4.65 -4.62,7.13 -2.18,1.77 -4.36,3.88 -4.36,8.64 v 1.63 h 2.22 c 0.11,-1.08 0.7,-1.59 1.44,-1.59 a 6.14,6.14 0 0 1 3,1 5.92,5.92 0 0 0 2.85,0.81 c 3,0 4.5,-2 4.5,-5.95 v -2.14 h -2.18 c 0,1.84 -0.11,3.32 -1.25,3.32 a 6.06,6.06 0 0 1 -2.29,-0.59 4.54,4.54 0 0 0 -2,-0.4 4.94,4.94 0 0 0 -3.33,1.25 l -0.07,-0.11 c 1.15,-2.44 3.73,-3.73 5.54,-4.62 a 8.27,8.27 0 0 0 5.28,-8.2 c 0,-4.21 -3.62,-6.32 -6.87,-6.32 a 9.47,9.47 0 0 0 -1.41,0.12 l -1.21,1.4 a 20.73,20.73 0 0 1 -1.75,2.35 z"
       id="path491"
       style="fill:#ffffff" />
    <path
       class="cls-1"
       d="m 634.67,428.79 a 2.84,2.84 0 0 0 1.1,-2.22 2.08,2.08 0 0 0 -2.36,-2 c -1.92,0 -2.7,1.55 -2.7,3.84 0,4.65 4,5.95 7.76,5.95 a 6.42,6.42 0 0 0 6.76,-6.72 c 0,-2.67 -1.51,-5 -3.14,-5.51 V 422 a 5.7,5.7 0 0 0 2.85,-5.21 c 0,-4.36 -3.77,-6.21 -7.32,-6.21 -3.18,0 -6.91,2.29 -6.91,6.17 0,2.59 0.74,4.29 2.63,4.29 a 2.45,2.45 0 0 0 2.51,-2.4 1.94,1.94 0 0 0 -1.59,-2 1,1 0 0 1 -1,-1.08 3.09,3.09 0 0 1 3.36,-2.58 c 2.51,0 3.44,1.77 3.44,4.36 0,2.81 -1.56,4 -2.88,4.21 v 2.25 c 1.51,0 3.06,0.41 3.06,4.07 0,2.91 -1.88,3.73 -3.32,3.73 -1.85,0 -3,-1.15 -3,-1.81 a 1.26,1.26 0 0 1 0.75,-1 z"
       id="path493"
       style="fill:#ffffff" />
    <path
       class="cls-1"
       d="M 630.83,405.07 H 647 v -1.25 h -15.7 l -0.2,0.66 z"
       id="path495"
       style="fill:#ffffff" />
    <path
       class="cls-1"
       d="m 569.64,403.82 v 1.25 h 57.64 c 0.07,-0.48 0.15,-0.93 0.23,-1.25 z"
       id="path497"
       style="fill:#ffffff" />
    <polygon
       class="cls-1"
       points="646.98,441.08 646.98,439.83 580.32,439.83 579.15,441.08 "
       id="polygon499"
       style="fill:#ffffff" />
    <polygon
       class="cls-1"
       points="569.64,439.83 569.64,441.08 578.34,441.08 579.4,439.83 "
       id="polygon501"
       style="fill:#ffffff" />
  </g>
</svg>
