<svg xmlns="http://www.w3.org/2000/svg" viewBox="0 0 1000 1000"><defs><style>.cls-1{fill:#fff;}</style></defs><title>Company Name White On Black Logo</title><g id="_4" data-name="4"><path class="cls-1" d="M495.58,419.08a4.31,4.31,0,0,0-.13,8.62c-2.08,6.19-7.72,10.48-13.72,14.42,6.21,1.63,10.4.9,13.23-1.08-2.32,5.2-4.88,7.32-4.88,7.32l8.73,8.74,1.53,1.53,1.54-1.53,8.73-8.74s-2.56-2.11-4.88-7.32c2.83,2,7,2.71,13.22,1.08-6-3.94-11.64-8.23-13.72-14.42a4.23,4.23,0,0,0,1.55-.35l-1.54-3.2-.4-1.59-.7-.7-2-.29-1.43-.55-.21-1.35-1.7-1.28-1.25-.84s-.73-1.72-.86-1.9a7.72,7.72,0,0,0-.65-.65l-.89-.74-.68-.42a27.93,27.93,0,0,1,1.48,5.24Z"/><path class="cls-1" d="M465.94,424.11c9.24,5.75,22.67-1,21.83-12.12a6.43,6.43,0,0,1-12.48-2.18,5.86,5.86,0,0,1,.08-.94,5,5,0,0,1,.73-2.18,6.43,6.43,0,0,1,4.29-3.17,9.35,9.35,0,0,1,9.11,2.07c-.26-.28-.78-.85-1-1.14a13.65,13.65,0,0,0-.89-1.14c-.18-.19-1.41-.94-1.48-1s-1.52-.63-1.52-.63l-2.61-.83-1.2-1.05-.55-1.33-.7-1.17s-2.71-1.41-2.79-1.49a14.57,14.57,0,0,1-.65-1.7,9.06,9.06,0,0,1,.12-2.31,22.5,22.5,0,0,0-8,2.27C452.94,401.6,455.66,417.73,465.94,424.11Z"/><path class="cls-1" d="M509.41,423.4a4.31,4.31,0,0,0-4.31-4.32h-.41a32.2,32.2,0,0,1,3.29-9.27c3.25-6.32,8.45-7.52,12.31-6.29a6.43,6.43,0,0,1,4.29,3.17,5,5,0,0,1,.73,2.18,5.86,5.86,0,0,1,.08.94A6.43,6.43,0,0,1,512.91,412c-.84,11.12,12.59,17.87,21.83,12.12,10.27-6.38,13-22.51-2.27-30.06-8.6-4.24-17.21-2.18-23.46,1.6,2.46-4.92,4.62-9.21,4.62-14.11,0-10.66-11.8-21.78-13.22-23.07l-.07-.07-.06.07c-1.42,1.29-13.23,12.41-13.23,23.07,0,4.9,2.16,9.19,4.62,14.11a26.11,26.11,0,0,0-14.16-3.94l-.13,1.73.76,1.18,1.22.94a13,13,0,0,1,1.64,1.08c.13.21,0,.52,0,.94s.66.94.66.94.7.77,1,1.05.69.62.9.83a10.49,10.49,0,0,0,2.05.59l.84.28a10.59,10.59,0,0,1,2.15,1.32c.25.38.74.52,1.05,1.05s.94,1.42.94,1.42l.81,2.63a17,17,0,0,1,1.29,2.12c.58,1.12,1.07,2.19,1.49,3.23.18.17,2.46,2,2.46,2l1.91,2.54,2.44,2,.07.91,2.64.76,1.78.59-.18.8.25,1.36,1.68,3.12A4.27,4.27,0,0,0,509.41,423.4Z"/><path class="cls-1" d="M477.41,389l0,.08a26.44,26.44,0,0,1,7.85.93.49.49,0,0,0,.52-.15.5.5,0,0,0,.11-.53,22.48,22.48,0,0,1-1.5-7.81c0-11.55,11.7-22.82,14.06-25l1.82-1.82,1.93,1.82c2.35,2.13,14,13.37,14,25a22.45,22.45,0,0,1-1.49,7.81.52.52,0,0,0,.63.68,25.44,25.44,0,0,1,18.24,1.66c7.49,3.71,11.81,9.67,12.15,16.79a20.31,20.31,0,0,1-9.66,17.87,16.68,16.68,0,0,1-8.83,2.49,18,18,0,0,1-13-5.58,16.34,16.34,0,0,1-1.51-1.92.53.53,0,0,0-.95.42,7,7,0,0,1,.19,1.64,6.83,6.83,0,0,1-2.85,5.61v0l.52.35,1.36,2.68.78,1.17a50.39,50.39,0,0,0,8.56,6.69l5,3.24-5.73,1.51a27.9,27.9,0,0,1-6.71,1,.53.53,0,0,0-.35.92l1.89,1.64-14.1,14.15-14.18-14.18,1.93-1.6a.53.53,0,0,0,.16-.58.52.52,0,0,0-.49-.35,27.9,27.9,0,0,1-6.71-1l-5.73-1.51,4.95-3.24c4.46-2.92,8.92-6.18,11.35-10.21a.52.52,0,0,0-.15-.7,6.92,6.92,0,0,1-2.65-7.25.53.53,0,0,0-.95-.41,16.24,16.24,0,0,1-1.51,1.91,18,18,0,0,1-13,5.58,16.68,16.68,0,0,1-8.83-2.49,20.34,20.34,0,0,1-9.67-17.87c.35-7.12,4.67-13.08,12.16-16.79a25.24,25.24,0,0,1,9.18-2.53c0-.43,0-.88,0-.88l-1.12-.07a26.23,26.23,0,0,0-8.55,2.54c-7.85,3.88-12.38,10.16-12.75,17.68a19.74,19.74,0,0,0,.15,3.35l.82-.33-.49.38-.24.19-.06,0c.07.48.15.95.25,1.43l.28.58.94,1.46-.93-.88a21.83,21.83,0,0,0,9.44,12.6,17.71,17.71,0,0,0,9.39,2.65A19,19,0,0,0,487.14,424c.15-.16.3-.33.44-.5a8,8,0,0,0,2.9,6.09c-2.38,3.68-6.57,6.73-10.77,9.48l-5.94,3.89a.53.53,0,0,0,.15.95l6.87,1.81a31.71,31.71,0,0,0,5.58,1l-1.32,1.09a.54.54,0,0,0-.19.38.55.55,0,0,0,.16.4l15,15a.55.55,0,0,0,.38.16.52.52,0,0,0,.37-.16L513.22,451l2.37-2.42a.54.54,0,0,0,.15-.39.53.53,0,0,0-.18-.37l-1.3-1.13a29.7,29.7,0,0,0,5.63-1l6.87-1.8a.53.53,0,0,0,.15-.95L521,439c-4.2-2.75-8.4-5.8-10.77-9.48a8,8,0,0,0,2.9-6.09c.14.17.29.34.44.5a19,19,0,0,0,13.76,5.92,17.71,17.71,0,0,0,9.39-2.65,21.37,21.37,0,0,0,10.15-18.81c-.36-7.52-4.89-13.8-12.74-17.68a26.38,26.38,0,0,0-18-2,22.66,22.66,0,0,0,1.24-7.23c0-12.05-12-23.57-14.38-25.76l-2.3-2.16a.54.54,0,0,0-.74,0l-2.16,2.17c-2.4,2.19-14.38,13.74-14.38,25.74a22.76,22.76,0,0,0,1.24,7.23,27.08,27.08,0,0,0-6.48-.74l-.26.54Z"/><path class="cls-1" d="M509.05,429.71a19.5,19.5,0,0,0,1.44,2l-1.05-2-.45-.28A.46.46,0,0,0,509.05,429.71Z"/><path class="cls-1" d="M208,546.58a3.43,3.43,0,0,0,.51-.09V511c0-4.9-1.2-7.33-2.38-7.57l-4.9-.76v-9.4H249l2-1.05a12.59,12.59,0,0,1,1.52.38l1.31.64V492H200V503.7l1.06.17,4.9.76c.2.12,1.32,1.66,1.32,6.33v35.58A5.83,5.83,0,0,0,208,546.58Z"/><path class="cls-1" d="M224.54,545.44v4.89c0,5.42,1.2,6.69,3.72,7.36l4.7,1.06v9.31h-31.7v-9.4l5-.78c.52-.1,2.32-.48,2.32-7.55v-2a2.16,2.16,0,0,1-.73.08,1.88,1.88,0,0,0-.53,0v1.93c0,4.79-.86,6.23-1.31,6.32l-4.91.77-1.06.17v11.73h34.21V557.75l-1-.22-4.7-1.06c-1.51-.41-2.75-.73-2.75-6.14v-5.17l-.78.13Z"/><path class="cls-1" d="M241,521.18v-6.35c0-8.31-6.44-11.41-10.49-11.41-4.22,0-5.94,1.86-5.94,6.4V523H235.8v11.22H224.54v8.92l1.25-.45v-7.21h11.27V521.79H225.79v-12c0-3.84,1.19-5.14,4.69-5.14s9.24,2.76,9.24,10.15v7.6h14.07v-28.2l-.43-.49-.83.42v27Z"/><path class="cls-1" d="M294.65,569.32v-11.8l-1.09-.14-4-.52c-1-.11-2.86-.32-2.86-6.53V538.14h7.87c2.39,0,4.19,4.1,4.93,11.25,1.46,12.8,4.63,20.73,15.89,20.73,12.43,0,13.87-13,13.87-22.75v-8.06H317a18.79,18.79,0,0,0-3.8-8.47c3.34-2.87,6.83-8,6.83-17,0-13.87-8.83-21.83-24.22-21.83H286l-.9,1.26h10.73c14.81,0,23,7.31,23,20.57,0,9.53-4.08,14.46-7.4,16.9,3.64,3.61,4.59,8.66,5,13.23.21,2.4.58,6.67,1.22,7.91a12.28,12.28,0,0,0,.65-4.47v-6.8H328v6.8c0,14.86-3.89,21.49-12.61,21.49-10.37,0-13.22-7.19-14.64-19.6-.46-4.46-1.53-9.56-3.93-11.53l-2.15-.32-.59-.53h-8.64v13.45c0,6.46,2,7.56,3.95,7.77l4,.53v9.43H262.15v-9.4l5-.78c.51-.1,2.31-.48,2.31-7.55v-11l-1-.21-.26,0v11.22c0,4.79-.86,6.23-1.32,6.32l-4.9.77-1.07.17v11.73h33.76Z"/><path class="cls-1" d="M260.89,503.7l1.07.17,4.9.76c.19.12,1.32,1.66,1.32,6.33V534.9l.8.22.45.64V511c0-4.9-1.19-7.33-2.38-7.57l-4.9-.76V499.2a12.05,12.05,0,0,1-1.26-.23v4.73Z"/><path class="cls-1" d="M295.81,506.27h-8.08c-1,0-2.3,0-2.3,5.26v11.4h10.38c3,0,6.17-3,6.17-8.1C302,508.51,298.66,506.27,295.81,506.27Zm0,15.4h-9.12V511.53c0-4,.7-4,1-4h8.08c2.38,0,4.91,1.91,4.91,7.3C300.72,519.11,298.23,521.67,295.81,521.67Z"/><path class="cls-1" d="M262.15,493.23h17.71l1.53-1.26h-20.5v4.81l1.26.61Z"/><polygon class="cls-1" points="382.4 568.06 378.31 568.06 364.91 569.32 382.4 569.32 383.66 569.32 383.66 568.06 383.66 566.26 382.4 566.82 382.4 568.06"/><path class="cls-1" d="M359.08,568.06H334.54v-9.4l5-.78c1.53-.25,2.32-2.79,2.32-7.55V511c0-4.9-1.2-7.33-2.38-7.57l-4.9-.76v-9.4H382.4v27.95H372.09v-6.35c0-6.93-3.27-11.41-8.33-11.41-4.5,0-5.94,1.56-5.94,6.4V523h11.27v11.22H357.82v17.1c0,4.46,1.72,6.28,5.94,6.28,5.84,0,8.33-3.38,8.33-11.29V539.2H382.4v24.69l.56-.16.7-.17V538H370.83v8.4c0,8.33-2.82,10-7.07,10-3.5,0-4.69-1.27-4.69-5V535.52h11.27V521.79H359.07v-12c0-4.43,1.12-5.14,4.69-5.14,4.3,0,7.07,4,7.07,10.15v7.6h12.83V492H333.28V503.7l1.06.17,4.9.76c.2.12,1.32,1.66,1.32,6.33v39.37c0,5.94-1.25,6.31-1.26,6.31l-5,.78-1.06.17v11.73h21.87l3.77-1.22Z"/><path class="cls-1" d="M393.15,558.66l5-.78c.52-.1,2.32-.48,2.32-7.55V511c0-4.9-1.2-7.33-2.38-7.57l-4.91-.76v-9.4h28.16l12.47,33.91V511c0-4.9-1.19-7.33-2.38-7.57l-4.9-.76v-9.4h25v9.39l-4.85.79c-1.1.2-2.44,2.32-2.44,7.55v57.1H428.33l-17.47-48.71v31c0,6.18,1.36,7.29,2.55,7.58l3.71.84v3.41l1.26.28v-4.69l-1-.22-3.71-.85c-1.3-.31-1.57-3.62-1.57-6.35V526.58l15,41.91.29.83h18V511c0-4.75,1.13-6.2,1.44-6.33l4.79-.77,1.05-.17V492h-27.5v8.31l-2.75-7.49-.3-.82H391.9V503.7l1.06.17,4.9.76c.2.12,1.32,1.66,1.32,6.33v39.37c0,4.79-.86,6.23-1.31,6.32l-4.91.77-1.06.17v7.12l1.25.58Zm38.06-54c.19.12,1.32,1.65,1.32,6.33v9.13l-5.95-16.18Z"/><polygon class="cls-1" points="417.12 564.07 417.12 568.06 394.15 568.06 393.48 568.5 391.9 567.45 391.9 568.06 391.9 569.32 393.15 569.32 417.12 569.32 418.38 569.32 418.38 568.06 418.38 564.11 417.32 564.13 417.12 564.07"/><path class="cls-1" d="M497.74,531.08h17.38V491.63H501.73v2.83c0,.23,0,.42,0,.6a17.62,17.62,0,0,1-3.12-1.39,22.62,22.62,0,0,0-10.54-2.49c-15.78,0-26.38,14.81-26.38,28.65v18.9c0,14.42,7.23,31.27,27.63,31.27,19.06,0,25.82-14.64,25.82-27.18V540H497.74v2.83c0,14.25-5.47,14.25-8.1,14.25-6.28,0-7-8.93-7-12.77V514c0-9.8,3.63-9.8,5.37-9.8,6.32,0,9.69,13.95,9.69,24v2.83ZM488.05,503c-3.08,0-6.62,1.26-6.62,11.06V544.3c0,4.22.8,14,8.21,14,4.36,0,9.36-1.76,9.36-15.5v-1.57h14.86v1.57c0,12-6.43,25.93-24.56,25.93-19.47,0-26.38-16.17-26.38-30v-18.9c0-13.23,10.1-27.4,25.13-27.4a21.36,21.36,0,0,1,9.92,2.33,12.84,12.84,0,0,0,4.76,1.77h0a4.62,4.62,0,0,0,.25-2.08v-1.57h10.88v36.93H499v-1.57C499,517.75,495.6,503,488.05,503Z"/><path class="cls-1" d="M588.41,557.6l-1.06-.17-4.79-.77c-.88-.18-1.43-2.55-1.43-6.33V522.18l-.44-.15-.82-1.24v29.54c0,6.34,1.42,7.35,2.49,7.57l4.79.77v.7c1.51.39.22.53.37.63a11.16,11.16,0,0,1,.89.84V557.6Z"/><path class="cls-1" d="M559,523.16l-2.3-.58-.77-.68h-6.18v-3.79l-1.26-.51v5.56Z"/><path class="cls-1" d="M587.15,568.06h-21.4l-.53.81h-2l.2-.81h-6.87v-9.39l4.84-.78c1.17-.23,2.56-1.3,2.56-7.56v-14H548.46v14c0,6.34,1.43,7.35,2.5,7.57l4.9.76v9.4H525.18v-9.4l5-.78c.51-.1,2.31-.48,2.31-7.55V511c0-4.9-1.19-7.33-2.38-7.57l-4.9-.76v-9.4h30.57v9.39l-4.85.78c-1.1.21-2.44,2.33-2.44,7.56v5.71l1.26.52V511c0-4.75,1.14-6.2,1.44-6.33l4.79-.77.22,0,.22,0,4.81.78c.39.07,1.53,1.71,1.53,6.32V521.9h-3.82L561,523l.81.2H564V511c0-4.37-1-7.27-2.59-7.56l-4.81-.78v-9.39h30.56v9.39l-4.84.78c-1.1.21-2.44,2.33-2.44,7.56v6.6l1.26.32V511c0-4.75,1.13-6.2,1.44-6.33l4.78-.77,1.06-.17V492H523.93V503.7l1.06.17,4.9.76c.19.12,1.32,1.66,1.32,6.33v39.37c0,4.79-.86,6.23-1.32,6.32l-4.9.77-1.06.17v11.73h64.48v-7l-1.26-.68Zm-30.9-10.61-.2,0-4.9-.77c-.88-.17-1.43-2.54-1.43-6.32V537.57h13v12.76c0,3.83-.56,6.14-1.53,6.32l-4.81.78Z"/><path class="cls-1" d="M631.58,514.26l4-21h27.78v9.4l-5,.78c-1.12.22-2.31,2.65-2.31,7.55v5.18l1.25,1V511c0-4.59,1.1-6.19,1.37-6.34l4.86-.75,1.06-.17V492H634.59l-.2,1-4,21A2.4,2.4,0,0,0,631.58,514.26Z"/><path class="cls-1" d="M601.06,557.88c.51-.1,2.31-.48,2.31-7.55V513.1a.21.21,0,0,0-.09.06l-1.16.84v36.33c0,4.79-.86,6.23-1.32,6.32l-4.9.77-1.07.17v7.49l0,0,1.23-.55v-5.91Z"/><polygon class="cls-1" points="631.23 516.1 630.32 515.72 628.91 515.36 630.17 521.62 631.23 516.1"/><path class="cls-1" d="M603.36,510.44c-.09-4.53-1.23-6.82-2.37-7.05l-4.9-.76v-9.4h28.35l4,19.8a2.55,2.55,0,0,1,.71-.08c.25,0,.44.27.67.54L625.67,493l-.21-1H594.83V503.7l1.07.17,4.9.76c.18.11,1.23,1.56,1.31,5.84A7.36,7.36,0,0,1,603.36,510.44Z"/><path class="cls-1" d="M613.8,550.33c0,6.18,1.36,7.29,2.55,7.58l.24.05.13-.3,0,.32,3.38.77V561l.66.15-6.92-35.19Zm1.25-11.52,3.61,18.34-2-.47c-1.29-.31-1.57-3.62-1.57-6.35Z"/><path class="cls-1" d="M656.13,550.33c0,6.34,1.42,7.35,2.49,7.57l4.91.76v9.4H634v-9.31l3.73-.84c1.17-.29,2.53-1.4,2.53-7.58V526.08l-8.17,42h-10l-1.31-6.67-.72,0v6.65h-24v-1.55l-.38-.14-.88-.48v3.43h69.95V557.59l-1.06-.17-4.9-.77c-.88-.17-1.44-2.54-1.44-6.32V518.46c-.35,0-.87-.13-1.25-.2ZM639,539.1v11.23c0,2.23-.21,6-1.57,6.35l-1.94.44Z"/><path class="cls-1" d="M705.33,544.85h-2.46l1.34.75,1.63,1.42h0Z"/><path class="cls-1" d="M695.59,493.23h13l13.73,53.18c.13.5.26,1,.39,1.43l1.29,0c-.15-.54-.3-1.1-.46-1.71l-13.73-53.19-.25-.94H694.63l-.25.93L688,516.64l1.21.36Z"/><polygon class="cls-1" points="683.54 537.74 688.97 517.7 687.78 517.28 682.37 537.28 682.98 537.46 683.54 537.74"/><path class="cls-1" d="M702.47,531.58l-2.19-10.17-2.8,10.17Zm-1.56-1.26h-1.78l1-3.64Z"/><path class="cls-1" d="M723,548.88c2,6.87,3.61,8.17,4.25,8.39l4.23,1.67v9.12H700.34V558.8l4.12-1.11c.91-.28,3-1,1.75-8.69l-.27-.64-1.4-1.39.07.33c.82,3.85,1.39,8.6-.52,9.19l-4.07,1.1-.38.1-.39-.1-4-1.07c-.55-.2-2-3.52-.63-9.11l.35-1.31h8.51L701,544.85h-7l-.59,2.25c-1.52,5.93-.07,10.06,1.52,10.63l4,1.07v9.26H671.66v-9.2l3.6-1.15c2-.63,3.75-3.29,6.93-15l1.14-4.22-1.18-.45L681,542.42c-2.57,9.45-4.34,13.53-6.1,14.1l-3.6,1.14-.87.28v11.38h62.32V558.08l-.79-.31-4.23-1.67c-.09,0-1.44-.73-3.34-7L724,549Z"/><path class="cls-1" d="M791.46,568.06H775.58l-2.6-7.27c-.53-.06-1-.12-1.4-.18l2.82,7.88.3.83h18v-1.11l-1.26-2.11Z"/><path class="cls-1" d="M758.12,550.33c0,6.18,1.36,7.29,2.55,7.58l3.71.84v1.69h.27a7,7,0,0,0,1-.18v-2.52l-1-.22-3.71-.85c-1.29-.31-1.57-3.62-1.57-6.35V526.58l11.56,32.21,1.2-.37-14-39.07Z"/><path class="cls-1" d="M747.69,550.33V511c0-4.9-1.19-7.33-2.38-7.57l-4.9-.76v-9.4h28.16L781,527.14V511c0-4.9-1.2-7.33-2.39-7.57l-4.9-.76v-9.4h25v9.39l-4.85.79c-1.1.2-2.43,2.32-2.43,7.55v50.9l.86.62a2.24,2.24,0,0,1,.4.41V511c0-4.75,1.13-6.2,1.43-6.33l4.79-.77,1.06-.17V492H772.5v8.31l-2.76-7.49-.3-.82H739.15V503.7l1.07.17,4.9.76c.19.12,1.32,1.66,1.32,6.33v39.37c0,.44,0,.84,0,1.23l1.15,1.57C747.65,552.33,747.69,551.42,747.69,550.33Zm30.77-45.7c.19.12,1.32,1.65,1.32,6.33v9.13l-5.95-16.18Z"/><path class="cls-1" d="M764.38,562.77v5.29h-24v-9.4l5-.78c.32-.06,1.13-.24,1.7-2l-1-1c-.28,1.27-.67,1.75-.93,1.8l-4.9.77-1.07.17v11.73h26.48v-6.78l-.29.09Z"/><path class="cls-1" d="M203.35,500.84l3.2.49c2.6.53,4.09,4,4.09,9.63v35h0c.17,0,2.23-1,2.23-1l3.58-2,2.38-.27,2,.75,1.55.32V532.17h11.27v-7H222.44V509.82c0-5.64,2.71-8.49,8-8.49a11.65,11.65,0,0,1,1.94.17l0-.5,0-.47.34-1.12-.55.19-.49,0-2-.64-2.58-.44,2.22-.15,2.92.76,1.79-.91,1.89-1.36,1.71,1,2.07-1,5.3-.73.79-.84H203.35Z"/><path class="cls-1" d="M206.57,560l-3.22.51V566h27.51v-5.54l-3.11-.71c-4.44-1.17-5.31-4.33-5.31-9.39V546a1.21,1.21,0,0,1-.29,0c-.37-.06-.61-.49-1.07-.92s-1.72-.22-1.72-.22-1.55,0-2.14,0-1.4.13-1.85.15a16.1,16.1,0,0,0-2.74,1.67l-1.16.65-.83.31v2.66C210.64,554.42,210.17,559.2,206.57,560Z"/><path class="cls-1" d="M243.07,514.83v4.25h7.37V495.32h-1.25l-.48.12-3.06,1.14-2.24.7-2.28.1-2.13.71-1.1.32-.56-.14-1.47-.61-.43.47-1.58.68-.78,1.25-.54,1.45C238,502.45,243.07,507,243.07,514.83Z"/><path class="cls-1" d="M267.44,501.33c2.61.53,4.09,4,4.09,9.63v25.16l.77-1.25,1.11-1.21,0-4.62s-.67-2.63-.82-3.35a4.9,4.9,0,0,1,.15-1.78l2.64-3.23.51-2.24.48-3.19-1-2.18s-.77-2.52-.89-2.79a17.65,17.65,0,0,1-.11-2.44c0-.56-.1-1.11-.12-1.55s.83-1.26.83-1.26l.7-1.81s-.57-.47-.86-.68-1.76-1-1.76-1l-1.14-.56s-2.27.1-2.77.06a8.08,8.08,0,0,1-1.24-.22l-1.48-.88s-.75-.15-2.32-.39v1.33Z"/><path class="cls-1" d="M264.25,498.21l8,2.11,3.82.84,1-.27s-.24-1.6-.26-2.15.56-1.2.77-1.54.94-1.37.94-1.37l.15-.51H264.25Z"/><path class="cls-1" d="M315.38,566.76c5.46,0,10.52-2.35,10.52-19.39v-4.7h-5.55v4.7c0,1.6-.19,6.79-2.69,6.79s-2.81-3.63-3.37-10c-.61-6.74-2.27-10.52-5.71-13l-.21-.16v-.8l.27-.15c3-1.66,8-6,8-16.16,0-12.09-7.22-18.48-20.87-18.48H283.57l-1.3,1.81-1.25.42-1.21,2.87-1.07,2.64.25,2.21,0,1.26-1-.7-1.84.08-.47,1.13.59,1.83-.35.53,1.49,3.57,1.69,3.18-.68,2.92,0,.82.71.93-2.3,3.5-1.74.82-.36,3.72,3.89.87,3.77,1.61,7.26,1.69,2.69.55,1.48,1.2h.73a5.94,5.94,0,0,1,5.06,3c1.62.59,3.41,1.21,3.41,1.21l1.55,1.64h2l2.45.26,2.81,1.4.22,0,1.21.69-1.43-.72-2.61-.3-2.24-.49-2,.23-1.86-1.77-2.85-1A29.09,29.09,0,0,1,302.82,549C304.36,562.45,307.41,566.76,315.38,566.76ZM295.81,525H283.33v-13.5c0-5.16,1.32-7.36,4.4-7.36h8.08c4.11,0,8.26,3.3,8.26,10.66C304.07,521.21,299.87,525,295.81,525Z"/><path class="cls-1" d="M267.47,560l-3.22.51V566H291.3v-5.5l-2.16-.28c-5.2-.58-5.81-5.9-5.81-9.86V534.78h7.84l-3.05-1.39-5-1L275,530.7l-1.11,0,.13,3.1-.4,2.69L272,539.87l-.43-.09v10.55C271.53,554.42,271.07,559.2,267.47,560Z"/><path class="cls-1" d="M374.19,541.3v5.05c0,9-3.41,13.39-10.43,13.39-5.41,0-8-2.75-8-8.38V532.17H367v-7H355.72V509.82c0-5.95,2.41-8.49,8-8.49,5.19,0,10.43,4.17,10.43,13.5v4.25h6.11V495.32H336.63v5.52l3.2.49c2.6.53,4.09,4,4.09,9.63v39.37c0,3.84-.43,9-4.09,9.62l-3.2.51V566H366.9l.17-.05h8.14l5.09-1.44V541.3Z"/><polygon class="cls-1" points="415.02 563.42 406.99 560.95 400.44 563.93 397.34 565.97 415.02 565.97 415.02 563.42"/><path class="cls-1" d="M412.93,560c-3.67-.88-4.17-5.36-4.17-9.62v-39.9h1.13L429.8,566h12.31V511c0-5.69,1.48-9.11,4.18-9.62l3.1-.5v-5.52h-20.8v5.52l3.2.49c2.61.53,4.09,4,4.09,9.63v25.22h-1l-15-40.86h-24.6v5.52l3.2.49c2.6.53,4.08,4,4.08,9.63v39.37c0,4.09-.46,8.87-4.06,9.62l-3.22.51v4.09l.42-.42,5.76-2.18,3-4.37,2.78-6.56-.4,3.31-.2,1.66-1.39,4,2-.6H409l6,2.19v-1.12Z"/><path class="cls-1" d="M511.76,527.73V495h-6.69c-.05,2-.44,3.65-2.34,3.65-1.6,0-4.08-1.08-5.72-2a19.39,19.39,0,0,0-9-2.09c-13.78,0-23,13.08-23,25.3v18.9c0,13.49,6.38,27.92,24.28,27.92,16.31,0,22.28-11.94,22.46-23.3H501.09c-.1,11.64-3.75,17.07-11.45,17.07-6.55,0-10.31-5.88-10.31-16.12V514c0-3.25,0-13.16,8.72-13.16,9.42,0,12.93,15.86,13,26.86Z"/><path class="cls-1" d="M550.55,501.34l3.1-.5v-5.52H527.28v5.52l3.19.49c2.61.53,4.09,4,4.09,9.63v39.37c0,4.09-.46,8.87-4.06,9.62l-3.22.51V566h26.48v-5.51l-3.19-.5c-3.73-.75-4.2-5.54-4.2-9.63V534.22h19.71v16.11c0,4.1-.49,8.89-4.29,9.62l-3.1.5V566H564l1.41-5.6,1.29-.37,1.37-2.89,1.21-2.65-.15-2.28.07-1.29,1,.76h1.9l.53-1.14-.53-1.9.38-.53-1.37-3.72L569.5,541l.83-3v-.83l-.68-1,2.5-3.49L574,532l.54-3.79-4-1.06-3.79-1.82-.69-.19v.12H546.37v-8.5l-.4-.16-1.51-1.75-2.05-.07-2.51-.38-2.81-1.56-.22,0-1.22-.76,1.44.79,2.66.42,2.28.61,2.05-.15,1.82,1.89.47.2V511C546.37,505.27,547.85,501.85,550.55,501.34Z"/><path class="cls-1" d="M577.77,521.41l-.49.74-1.2,1.19-.23,4.73s.57,2.73.69,3.47a5.12,5.12,0,0,1-.23,1.82l-2.85,3.19-.62,2.27-.63,3.25.91,2.27s.68,2.62.8,2.91a18.82,18.82,0,0,1,0,2.5c0,.57.05,1.14.05,1.59s-.91,1.26-.91,1.26l-.79,1.82s.57.51.85.74,1.77,1.14,1.77,1.14l1.13.62s1.94,0,2.67.05a18.52,18.52,0,0,1-.92-6.64Z"/><path class="cls-1" d="M585.06,560.49l-.11,0-3-.49a3.94,3.94,0,0,1-2.14-1.16l-4-1.24-3.87-1-1,.23s.17,1.65.17,2.22-.62,1.2-.85,1.54-1,1.36-1,1.36l-.68,2L567.13,566h17.93Z"/><path class="cls-1" d="M582,501.34l3.1-.5v-5.52H558.69v5.52l3.08.49c2.79.51,4.31,3.93,4.31,9.63v13.22h0l8.27,2.12h1.14v-3.18l.53-2.74,1.75-3.21V511C577.77,505.27,579.26,501.85,582,501.34Z"/><path class="cls-1" d="M611.7,550.33V511.65a3.25,3.25,0,0,1-.56.37,3.07,3.07,0,0,0-1.14.91l-4.53.05v37.35c0,4.09-.46,8.87-4.06,9.62l-3.22.51v3.44l1.51-.32,3.19-1,2.33-.63h2.33l2.22-.63,1.14-.28.57.17,1.48.68.45-.45,1.66-.63.61-.9C612.18,558.9,611.7,554.52,611.7,550.33Z"/><path class="cls-1" d="M658.1,501.34l3.22-.5v-5.52h-24l-3.65,19h.44c.61,0,1.44-.07,1.9-.07a16.46,16.46,0,0,0,2.88-1.6l1.21-.6.75-.25.26-1.36h1.19v.94a5.05,5.05,0,0,1,1.6-.24c.68.15,1.37-.23,2.28,0s2.58.53,2.58.53l3.87,2.05,1.36.93V511C654,505.36,655.51,501.86,658.1,501.34Z"/><path class="cls-1" d="M638.18,560l-2.1.48V566h25.35v-5.51l-3.2-.5c-3.72-.75-4.2-5.54-4.2-9.63V516.68c-.6-.58-1.21-1.16-1.46-1.36a14.75,14.75,0,0,0-1.88-1.14,19.34,19.34,0,0,0-2.16-.74s-1.94-.06-2.67-.17S644,513,643.64,513a9.76,9.76,0,0,0-1.3.22v37.12C642.34,554.59,641.85,559.07,638.18,560Z"/><polygon class="cls-1" points="616.15 560.22 616.54 560.1 616.22 560.03 616.15 560.22"/><path class="cls-1" d="M598.19,495.32v5.52l3.19.49c2.56.52,4,3.91,4.08,9.31l.31,0a19.84,19.84,0,0,0,3.41-1.82l1.75-.76,3.11-1,1.52.08.91-.91.45,1.29v1l1.37.83,1.06,1.29,2.36,2.73,2.12.46,2.35-.31.21,0-3.67-18.18Z"/><path class="cls-1" d="M630.34,566l10.19-52.35c-.66.26-2,.85-2,.85l-3.76,1.93-1.52.11-3.07,16-3.39-16.8c-1.33.42-3.12,1-3.23,1a24.74,24.74,0,0,1-2.56-1.14c-.68-.34-2.22-2.5-2.67-3a19.81,19.81,0,0,0-1.88-1.82,20.7,20.7,0,0,1-1.65-1.65s-1,.86-1.91,1.66L623.81,566Z"/><polygon class="cls-1" points="617.96 560.91 616.66 560.51 614.78 561.36 612.79 562.67 611.08 561.53 608.92 562.5 603.46 563.01 601.69 564.72 599.06 565.97 617.96 565.97 617.96 560.91"/><path class="cls-1" d="M705,559.71l-2.59.7V566h26.94v-5.61l-2.85-1.12c-2.11-.74-4-4.11-5.76-10.54l-3.49-.28-1.23-1.5-5.58,1.91-2.06.62C709.32,555.6,708.26,558.72,705,559.71Z"/><path class="cls-1" d="M675.9,559.71l-2.14.68V566h23.07v-5.56l-2.57-.69c-2.82-1-4.64-6.22-2.87-13.16l1-3.81h4.4l-1.81-.91-5,.08-4.68-2.5-1,3.88C681.11,554.7,679.09,558.69,675.9,559.71Z"/><path class="cls-1" d="M689.93,540.93l5.5-.24,3.69,2.06H707l.9,3.82c.11.54.21,1.07.3,1.57l.77.14,3.78-1.91,3.2-.81,2,2.13,2.55.09c-.08-.28-.15-.56-.23-.84L707,495.32h-9.78l-6,22.29,1.42.42,3.57-.68,2.81.92.84-3.06h1.28l.83,3.85,2.51.49,4.32.83-6.69-.69,3,14H694.73l4.09-14.86-2.54-.76-3.87.85-1.46-.51-5.49,20.31Z"/><path class="cls-1" d="M789.36,566v-1.42l-1.25-.5-3.29-.15a27.3,27.3,0,0,1-4.2.12c-.5-.19-.7-.87-1.22-1.6s-2.31-.84-2.31-.84l-1.74-.38,1.71,4.77Z"/><path class="cls-1" d="M745.73,560l-3.22.51V566h19.77v-3a6.79,6.79,0,0,1-2.35,0c-.9-.37-1.93,0-3.12-.54s-3.41-1.35-3.41-1.35l-4.7-3.65A4.17,4.17,0,0,1,745.73,560Z"/><path class="cls-1" d="M793.54,501.34l3.11-.5v-5.52h-20.8v5.52l3.2.49c2.6.53,4.08,4,4.08,9.63v25.22h-1l-15-40.86H742.51v5.52l3.19.49c2.61.53,4.09,4,4.09,9.63v39.37a24.47,24.47,0,0,1-.43,5.09c.68.68,1.62,1.38,2,1.74a26.67,26.67,0,0,0,2.79,1.53s2.63.55,3.62.88,2.42.83,3,.92a12.48,12.48,0,0,0,1.49,0v-.08l-2.1-.48c-3.67-.88-4.16-5.36-4.16-9.62v-39.9h1.12L774.2,558l2.88.3,2.6,1.66,2.68,1.19s6.5-.87,6.73-.83a2.42,2.42,0,0,1,.27.14V511C789.36,505.27,790.85,501.85,793.54,501.34Z"/><path class="cls-1" d="M376.47,591.79c3.58,0,7.65,2.75,9.15,4.66a16.92,16.92,0,0,1,2.83,6.4h4.07V587.22h-4.07a3.22,3.22,0,0,1-2.25,1.25,13.34,13.34,0,0,1-3.82-.83,25.34,25.34,0,0,0-6.91-1c-7.84,0-14.3,5-14.9,13.07.58.11,1.32.2,1.32.2l2.38.18,3.08-.16,2.32-.77a5,5,0,0,1,0-.55A6.57,6.57,0,0,1,376.47,591.79Z"/><path class="cls-1" d="M371,617.07l6.49,2.66c2.74,1.17,7.15,3.16,7.15,7.9a6.21,6.21,0,0,1-6.07,6.32,13.73,13.73,0,0,1-11.89-6.07,16.61,16.61,0,0,1-2.58-6.15h-4.15V639.6h4.15c.75-1.49,1.67-3.16,3-3.16s2.82.75,4.74,1.67a18,18,0,0,0,7.81,2c8.48,0,15-6.32,15-15.71,0-5.48-1.47-9.29-4.58-12.17a1.8,1.8,0,0,1-.56-.09c-.88-.36-1.87,0-3-.53s-3.31-1.31-3.31-1.31l-4.67-3.63-.17-.16c-5-1.5-7.83-2.86-8.47-6.09a11.82,11.82,0,0,1-2.34.58c-.4-.07-6.58-.42-6.58-.42l-.36-.12c0,.17,0,.32,0,.49C360.51,609.26,363.5,613.91,371,617.07Z"/><polygon class="cls-1" points="432.97 587.22 434.84 589.04 440.48 591.91 442.91 592.49 442.91 587.22 432.97 587.22"/><path class="cls-1" d="M417.63,634.45l-2.66.42v4.73h20.12v-4.73l-2.57-.42c-2.17-.42-2.83-2.83-2.83-6.65v-3.53l-1.39.18-2-.45-1.42,1-.31-1.82.23-1.32-1.62-1.43-1.11-2-1.69-2.84V627.8C420.38,631.62,419.71,634,417.63,634.45Z"/><path class="cls-1" d="M407.16,608.09h4.9v-4.65c0-4.91,1.25-10.32,4.83-10.32,3.16,0,3.49,4.91,3.49,8.07v10.06l.56.41c.83.62,2.37,3.85,2.86,4.64a24.87,24.87,0,0,0,2.08,2.86,30.8,30.8,0,0,1,1.81,2.58s.9-.57,2-1.22V601.19c0-3.16.33-8.07,3.49-8.07,3.58,0,4.82,5.41,4.82,10.32v4.65h4.91v-14.5l-4.58-1.27-3.69-.92L431,588.12s-.95-.48-1.73-.9H407.16Z"/><path class="cls-1" d="M463.62,639.6l-3.15-1-5-1.32v2.29Z"/><path class="cls-1" d="M455.47,592l2.66.42a2.84,2.84,0,0,1,1.93,1.93v-2.2l.72-3.69.65-1.2h-6Z"/><path class="cls-1" d="M476,634.87l-1.91-.26c-3-.33-3.91-3-3.91-6.81v-11H478c3.83,0,5.16,5.24,5.66,10.06,1.16,10.15,3.58,13.3,9.56,13.3,4.91,0,8.07-3,8.07-14.55v-3.82h-4.83v3.82c0,1.83-.33,4.58-1.58,4.58s-1.66-2.25-2.07-7c-.42-4.57-1.5-7.73-4.33-9.81v-.16c3.16-1.75,6.07-5.49,6.07-12.14,0-8.57-5-13.89-15.63-13.89h-6.5l-2.11,4.36-1.15-.23-2.08-.7-2.23-3.38-2.38,3.54-1.62,1.61-.2,4.29a18.09,18.09,0,0,1,.15,2.32v1c.23,1.17.57,2.86.67,3.48a6.9,6.9,0,0,1-.31,2.46l-.36.41V627.8c0,3.82-.67,6.23-2.67,6.65l-2,.32.75.63c.38.31,2.38,1.54,2.38,1.54l1.54.84s3.15,0,3.84.08a11.85,11.85,0,0,1,1.69.39l2,1.3.22.05H476Zm-5.82-35.43c0-4,1.08-5,2.83-5h5.9c2.74,0,5.65,2.16,5.65,7.4,0,4.49-2.91,7.06-5.65,7.06h-8.73Z"/><path class="cls-1" d="M516.51,634.45l-2.66.42v4.73h1.55l.35-.82-.1.82h30.87V628.28l-5.3-1.71c-.31,4.36-2,7.71-7.17,7.71-4.24,0-5.49-2.41-5.49-5.73v-2.46l-.78.27-3.73,1.12-.66-1.58-2-2-2.18-1.09v5C519.17,631.62,518.5,634.12,516.51,634.45Z"/><path class="cls-1" d="M536.79,614.91V609h-8.23V598.2c0-3.83,1.25-5.82,5.49-5.82,3.91,0,7.23,3.24,7.23,9.48v3.49h5.24V587.22H513.85V592l2.66.42c1.66.33,2.66,2.74,2.66,6.65V621.8l2.53,1.41,2.57,2.25,2.05.36,2.24-1.13v-9.78Z"/><path class="cls-1" d="M541.28,620.81v4.54l1.36,0s3.31,2.06,3.75,2.22l.13,0v-6.77Z"/><path class="cls-1" d="M561.74,634.45l-2.66.42v4.73h13.85l-.11,0c-1.16-.51-3.31-1.31-3.31-1.31l-4.67-3.63-1.41-1.37A2.37,2.37,0,0,1,561.74,634.45Z"/><path class="cls-1" d="M586.52,620.81v4.08c0,5.15-1.41,9.39-7.23,9.39-4.24,0-5.49-2.41-5.49-5.73V614.91H582V609H573.8V598.2c0-3.83,1.25-5.82,5.49-5.82,3.91,0,7.23,3.24,7.23,9.48v3.49h5.24V587.22H559.08V592l2.66.42c1.67.33,2.67,2.74,2.67,6.65V627.8a19.91,19.91,0,0,1-.23,3.18c.49.67.94,1.27,1.16,1.52a20,20,0,0,0,2.24,2,26.22,26.22,0,0,0,2.7,1.49s2.56.53,3.52.85a29.74,29.74,0,0,0,2.89.9c.53.09,3.53-.09,3.76-.05s3.33-.74,3.33-.74l5.44-1.7,2.54.27V620.81Z"/><path class="cls-1" d="M591.76,638.58c-.68-.15-1.65-.36-2.14-.45-.81-.14-1.93-.23-2.54-.34s-4.21,1.45-4.21,1.45l-1.21.36h10.1Z"/><polygon class="cls-1" points="633.86 587.22 634.23 587.3 640.07 588.42 640.07 587.22 633.86 587.22"/><path class="cls-1" d="M614.8,634.45l-2.66.42v4.73h20.12v-4.73l-2.58-.42c-2.16-.42-2.83-2.83-2.83-6.65v-6.93l-2.13-.59-3.69-.92-3.49-3.1V627.8C617.54,631.62,616.88,634,614.8,634.45Z"/><path class="cls-1" d="M630.35,593.12c3.57,0,4.82,5.41,4.82,10.32v4.65h4.9V588.42l-9.61-1-.67-.2H604.32v20.47l.39.4h4.52v-4.65c0-4.91,1.24-10.32,4.82-10.32,3.16,0,3.49,4.91,3.49,8.07v12.63l.52.11,3.18,3.07,5.61,2.86V601.19C626.85,598,627.19,593.12,630.35,593.12Z"/><polygon class="cls-1" points="354.27 597.41 354.27 581.57 400.25 581.57 400.25 608.04 401.52 607.65 401.52 581.58 418.69 581.58 418.13 580.94 415.36 580.84 411.98 580.33 411.98 580.33 401.51 580.33 401.51 580.32 353.02 580.32 353.02 597.43 353.11 597.43 354.27 597.41"/><path class="cls-1" d="M401.52,645.27V610l-.84-.12a1.63,1.63,0,0,0-.43,0v35.37h-46V598.5l-1.26-.1v48.11H445.4l.32-1.25Z"/><path class="cls-1" d="M449.82,638.45V620.52l-1.26.78v19.81Z"/><polygon class="cls-1" points="448.56 581.58 448.56 593.86 449.82 594.18 449.82 581.57 474.45 581.57 476.19 580.32 448.56 580.32 448.56 580.33 418.51 580.33 419.71 581.58 448.56 581.58"/><path class="cls-1" d="M449.33,616.25a2.85,2.85,0,0,1,.49-.22v-20.2l-1.26-.6v21.43C448.92,616.48,449.2,616.33,449.33,616.25Z"/><path class="cls-1" d="M479.51,581.57l1.36-.53,2.5.53h3.23a2.91,2.91,0,0,0,.93-.22c.34-.2,1.06-.71,1.53-1H476.68l1.4,1.25Z"/><path class="cls-1" d="M451.28,645.25l-.43,1.26h29.33l-2.27-1.26Z"/><path class="cls-1" d="M484,646.16l.31.35h9.29l3.47-1.11.52-.15H483.14C483.39,645.53,483.79,646,484,646.16Z"/><path class="cls-1" d="M531.36,581.43l-.46.14h1Z"/><path class="cls-1" d="M521.26,581.57a10.5,10.5,0,0,1-1.21-1.25H495.33l-1.7,1.25h13.31v36.66l.88.44h.37V581.57Z"/><polygon class="cls-1" points="507.91 643.32 508.19 643.41 508.19 619.63 507.83 619.64 506.94 619.16 506.94 643.56 507.91 643.32"/><path class="cls-1" d="M564.18,581.57a15.65,15.65,0,0,0-2-1.25H545.53l-.26.11-2.22,1.14h9.13V628l1.25-.07V581.57Z"/><polygon class="cls-1" points="597.41 581.57 597.41 583.81 598.67 583.12 598.67 581.57 601.47 581.57 602.25 581.14 603.9 580.32 598.67 580.32 597.41 580.32 565.65 580.32 567.48 581.57 597.41 581.57"/><path class="cls-1" d="M607.76,645.25h-9.09V641.1l-1.26.07v4.08h-44V628.91l-1.25-.08v16.42H510.89l-.44.3-.45-.3h-1.81v-1.2l-.05,0-1.2.54v.7h-1.58l-.14.07-7.38.69-.52.5H608.51l0-.08Z"/><polygon class="cls-1" points="605.86 581.43 603.78 581.43 603.59 581.57 606.1 581.57 605.86 581.43"/><polygon class="cls-1" points="645.73 645.25 642.1 645.25 642.02 645.68 642.35 646.51 646.98 646.51 646.98 634.56 645.73 635.97 645.73 645.25"/><path class="cls-1" d="M611.76,646.51h8.08a4.23,4.23,0,0,0,1.59-.9l5.52.9h4.21l2.55-1.26H610.85C611.15,645.69,611.47,646.14,611.76,646.51Z"/><polygon class="cls-1" points="607.71 581.57 645.73 581.57 645.73 624.38 646.46 624.38 646.46 620.08 646.98 617.36 646.98 580.32 606.32 580.32 606.65 580.84 607.71 581.57"/><path class="cls-1" d="M647,627v-1l0,.84Z"/><polygon class="cls-1" points="597.56 585.2 597.41 585.09 597.41 606.63 598.17 606.75 598.67 606.88 598.67 584.7 597.56 585.2"/><path class="cls-1" d="M597.66,638.32l1-.14V608.33l-.29,0-1-.54v30.46Z"/><path class="cls-1" d="M354.77,434.11h12.87v-8.35h-2.33v1.81c0,2.29-.62,4.17-3.21,4.17-1.88,0-2.44-1.07-2.44-2.55v-6.06h3.66v-2.62h-3.66v-4.8c0-1.7.56-2.59,2.44-2.59s3.21,1.44,3.21,4.21v1.56h2.33v-8.06H353.12v2.11l1.19.18c.73.15,1.18,1.22,1.18,3v12.78a3.91,3.91,0,0,1-.63,2.67C354.89,432.35,354.81,433.43,354.77,434.11Z"/><path class="cls-1" d="M380.75,431.59a6.07,6.07,0,0,1-5.28-2.69,7.5,7.5,0,0,1-1.15-2.74h-1.84v7.95h1.84c.34-.67.74-1.41,1.34-1.41a5.47,5.47,0,0,1,2.1.74,7.9,7.9,0,0,0,3.47.89c3.77,0,6.65-2.81,6.65-7,0-4.44-2.14-6.43-7-7.87-2.81-.82-4.14-1.48-4.1-3.59a2.92,2.92,0,0,1,3-3,6.06,6.06,0,0,1,4.06,2.07,7.41,7.41,0,0,1,1.26,2.85H387v-6.95h-1.81a1.45,1.45,0,0,1-1,.56,6.05,6.05,0,0,1-1.7-.37,11.27,11.27,0,0,0-3.06-.45c-3.66,0-6.65,2.44-6.65,6.36,0,3.69,1.33,5.76,4.65,7.17l2.88,1.18c1.22.51,3.18,1.4,3.18,3.51A2.76,2.76,0,0,1,380.75,431.59Z"/><path class="cls-1" d="M408,419.67c-.05-.19-.18-2.23-.18-2.23s-.37-1-.47-1.23a12.34,12.34,0,0,0-1.46-1.36s0-.82,0-1.14,0-1.45,0-1.45l.05-1.07-1.16-.36H392.2v9.27h2.18V418c0-2.18.56-4.58,2.15-4.58,1.4,0,1.55,2.17,1.55,3.58v11.82c0,1.7-.3,2.77-1.22,3l-1.18.18v2.11h8.94V432l-1.15-.18c-1-.19-1.25-1.26-1.25-3V417c0-1.41.14-3.58,1.55-3.58,1.59,0,2.14,2.4,2.14,4.58v2.06h1.74C407.12,419.22,408,419.82,408,419.67Z"/><path class="cls-1" d="M408.09,415.48v-4.65h-1.62c.49,1.35,1.24,3.48,1.42,4.05C407.92,415,408,415.21,408.09,415.48Z"/><path class="cls-1" d="M415.38,432.49c-.07-.35-.56-2-.56-2l-.39-1.09c-.07,1.37-.39,2.22-1.17,2.39l-1.19.18v2.11h2.33l1.12-.53S415.44,432.84,415.38,432.49Z"/><path class="cls-1" d="M420.85,434.11h.35a7.73,7.73,0,0,0,2.93-.58l-.93-.44Z"/><path class="cls-1" d="M417.13,432.26l.9.49s.73-1,1.15-1.55a3.36,3.36,0,0,1-.56-2.34v-12.6c0-1.7.07-2.8,1.25-2.8h2.51c1.59,0,2.88,1.47,2.88,8.9a17.76,17.76,0,0,1-1.32,7l.42-.24,4.22.33a13.59,13.59,0,0,0,1.67-6.69c0-8.61-3.21-11.9-7.76-11.9H412.07v2.11l1.19.18c.74.15,1.18,1.22,1.18,3v12.09l.52.85Z"/><polygon class="cls-1" points="395.31 405.07 430.36 405.07 430.36 403.82 393.16 403.82 393.91 404.05 395.31 405.07"/><polygon class="cls-1" points="391.49 403.85 391.47 403.82 353.02 403.82 353.02 405.07 393.97 405.07 392.51 404.38 391.49 403.85"/><path class="cls-1" d="M408.17,441.08l.24-.67s.12-.25.29-.58H361.4c.29.25.84.73,1.46,1.25Z"/><polygon class="cls-1" points="430.36 441.08 430.36 439.83 410.63 439.83 410.14 441.08 430.36 441.08"/><path class="cls-1" d="M580,425.09a8.27,8.27,0,0,0,5.28-8.2c0-4.21-3.62-6.32-6.87-6.32-3.62,0-7,2.29-7,6.17,0,2.59.78,4.55,2.73,4.55a2.47,2.47,0,0,0,2.48-2.41,1.79,1.79,0,0,0-1.63-2,1.06,1.06,0,0,1-1-1.11c0-.89.88-2.8,3.54-2.8,2.07,0,3,1.88,3,3.73,0,2.77-1.48,4.65-4.62,7.13-2.18,1.77-4.36,3.88-4.36,8.64v1.63h2.22c.11-1.08.7-1.59,1.44-1.59a6.14,6.14,0,0,1,3,1,5.92,5.92,0,0,0,2.85.81c3,0,4.5-2,4.5-5.95v-2.14h-2.18c0,1.84-.11,3.32-1.25,3.32a6.06,6.06,0,0,1-2.29-.59,4.54,4.54,0,0,0-2-.4,4.92,4.92,0,0,0-3.33,1.25l-.07-.11C575.56,427.27,578.15,426,580,425.09Z"/><path class="cls-1" d="M604.34,425.39c-.59.33-.84,1.05-1.65,1.48-.62.33-1.59.91-2,1.16-.31,2.67-1,3.93-2.43,3.93-1.2,0-1.88-.88-2.25-2.74l-2.79.36-1.61.13a6.82,6.82,0,0,0,6.65,4.62c5.23,0,7.71-4.47,7.85-11.36A10.15,10.15,0,0,1,604.34,425.39Z"/><path class="cls-1" d="M595.34,428l.46-.05a53.16,53.16,0,0,1-.21-5.54c0-7.35.44-9.42,2.66-9.42s2.65,2.07,2.65,9.42c0,1.2,0,2.27,0,3.23.27-.2.53-.4.71-.51.61-.4,1.51-1,1.8-1.24s1.53-2,1.65-2.15a20.21,20.21,0,0,0,1-1.95c-.69-5.72-3.68-9.17-7.71-9.17-4.62,0-7.87,4.59-7.87,11.79A22.41,22.41,0,0,0,591,428l.24-.14C591.42,427.8,594.63,428,595.34,428Z"/><path class="cls-1" d="M613.93,414.46c-.33.19-.79,0-1.42,0a1.48,1.48,0,0,0-.87.37,5.8,5.8,0,0,0-.32,1.94c0,2.59.78,4.55,2.73,4.55a2.46,2.46,0,0,0,2.48-2.41,1.79,1.79,0,0,0-1.63-2,1.06,1.06,0,0,1-1-1.11c0-.89.88-2.8,3.54-2.8,2.07,0,3,1.88,3,3.73,0,2.77-1.48,4.65-4.62,7.13-2.18,1.77-4.36,3.88-4.36,8.64v1.63h2.22c.11-1.08.7-1.59,1.44-1.59a6.14,6.14,0,0,1,3,1,5.92,5.92,0,0,0,2.85.81c3,0,4.5-2,4.5-5.95v-2.14h-2.18c0,1.84-.11,3.32-1.25,3.32a6.06,6.06,0,0,1-2.29-.59,4.54,4.54,0,0,0-2-.4,4.94,4.94,0,0,0-3.33,1.25l-.07-.11c1.15-2.44,3.73-3.73,5.54-4.62a8.27,8.27,0,0,0,5.28-8.2c0-4.21-3.62-6.32-6.87-6.32a9.47,9.47,0,0,0-1.41.12l-1.21,1.4A20.73,20.73,0,0,1,613.93,414.46Z"/><path class="cls-1" d="M634.67,428.79a2.84,2.84,0,0,0,1.1-2.22,2.08,2.08,0,0,0-2.36-2c-1.92,0-2.7,1.55-2.7,3.84,0,4.65,4,5.95,7.76,5.95a6.42,6.42,0,0,0,6.76-6.72c0-2.67-1.51-5-3.14-5.51V422a5.7,5.7,0,0,0,2.85-5.21c0-4.36-3.77-6.21-7.32-6.21-3.18,0-6.91,2.29-6.91,6.17,0,2.59.74,4.29,2.63,4.29a2.45,2.45,0,0,0,2.51-2.4,1.94,1.94,0,0,0-1.59-2,1,1,0,0,1-1-1.08,3.09,3.09,0,0,1,3.36-2.58c2.51,0,3.44,1.77,3.44,4.36,0,2.81-1.56,4-2.88,4.21v2.25c1.51,0,3.06.41,3.06,4.07,0,2.91-1.88,3.73-3.32,3.73-1.85,0-3-1.15-3-1.81A1.26,1.26,0,0,1,634.67,428.79Z"/><path class="cls-1" d="M630.83,405.07H647v-1.25H631.3l-.2.66Z"/><path class="cls-1" d="M569.64,403.82v1.25h57.64c.07-.48.15-.93.23-1.25Z"/><polygon class="cls-1" points="646.98 441.08 646.98 439.83 580.32 439.83 579.15 441.08 646.98 441.08"/><polygon class="cls-1" points="569.64 439.83 569.64 441.08 578.34 441.08 579.4 439.83 569.64 439.83"/></g></svg>